<?xml version="1.0" standalone="no"?>
<!DOCTYPE svg PUBLIC "-//W3C//DTD SVG 1.1//EN" "http://www.w3.org/Graphics/SVG/1.1/DTD/svg11.dtd">
<svg xmlns="http://www.w3.org/2000/svg">
<defs >
<font id="Aclonica" horiz-adv-x="1128" ><font-face
    font-family="Aclonica"
    units-per-em="2048"
    panose-1="2 6 5 3 0 0 0 2 0 4"
    ascent="1687"
    descent="-533"
    alphabetic="0" />
<glyph unicode=" " glyph-name="space" horiz-adv-x="580" />
<glyph unicode="!" glyph-name="exclam" horiz-adv-x="667" d="M548 1540L436 395H231L120 1540H548ZM516 150Q516 112 502 79T463 21T405 -18T334 -33Q296 -33 263 -19T205 20T166 78T151 150Q151 187 165 220T204 278T262 317T334 332Q371 332 404 318T462 279T501
221T516 150Z" />
<glyph unicode="&quot;" glyph-name="quotedbl" horiz-adv-x="1029" d="M924 1440L862 938H619L557 1440H924ZM473 1440L412 938H168L107 1440H473Z" />
<glyph unicode="#" glyph-name="numbersign" horiz-adv-x="1151" d="M1083 987L1032 801H904L846 604H979L925 420H791L705 131H470L556 420H429L343 131H107L195 420H69L123 604H249L309 801H176L227 987H364L451 1282H685L597 987H726L814 1282H1047L960 987H1083ZM669
801H542L483 604H611L669 801Z" />
<glyph unicode="$" glyph-name="dollar" horiz-adv-x="956" d="M540 586V351Q565 354 590 361T634 381T666 414T678 464Q678 490 666 509T635 543T591 568T540 586ZM420 857V1089Q396 1086 373 1079T332 1059T303 1026T292 978Q292 951 303 932T332 898T373 874T420
857ZM540 -33H420V243Q377 246 338 254T258 280T172 322T72 383L197 552Q212 514 234 481T285 421T347 376T420 352V618Q364 634 306 654T198 706T118 785T87 902Q87 982 113 1037T186 1127T292 1179T420 1201V1470H540V1199Q576 1197 613 1190T690 1167T773 1125T867
1059L742 890Q715 970 667 1024T540 1090V826Q596 810 656 790T767 737T849 658T882 540Q882 458 854 403T779 313T670 262T540 241V-33Z" />
<glyph unicode="%" glyph-name="percent" horiz-adv-x="1570" d="M1502 368Q1502 279 1473 216T1397 111T1292 50T1178 30Q1121 30 1064 51T961 114T887 219T858 368Q858 457 887 521T961 626T1064 686T1178 706Q1239 706 1297 687T1400 626T1474 521T1502 368ZM1285
1390L497 50H289L1067 1390H1285ZM712 1062Q712 973 683 909T607 804T502 744T388 724Q331 724 274 745T171 808T97 913T68 1062Q68 1151 97 1215T171 1320T274 1380T388 1400Q449 1400 507 1381T610 1320T684 1215T712 1062ZM1311 368Q1311 413 1305 456T1283
535T1242 591T1178 613Q1143 613 1119 592T1079 536T1056 457T1049 368Q1049 324 1056 280T1078 202T1118 146T1178 124Q1211 124 1236 146T1277 203T1302 282T1311 368ZM521 1062Q521 1107 515 1150T493 1228T452 1284T388 1306Q353 1306 329 1285T289 1229T266
1151T259 1062Q259 1018 266 974T288 895T328 839T388 817Q421 817 446 839T487 897T512 976T521 1062Z" />
<glyph unicode="&amp;" glyph-name="ampersand" horiz-adv-x="1612" d="M1586 503Q1550 428 1503 359T1396 230L1526 107L1299 -56L1183 67Q1092 18 994 -5T793 -29Q717 -29 635 -23T472 1T319 51T192 133T105 254T72 422Q72 498 100 563T177 678T289 763T424
813Q389 837 356 871T296 946T253 1031T236 1119Q236 1215 276 1281T382 1387T528 1446T692 1464Q773 1464 856 1446T1005 1387T1114 1281T1156 1119Q1156 1050 1129 995T1058 895T959 815T849 752L1184 433Q1206 490 1218 550T1230 672L1586 503ZM843 1097Q843
1132 834 1164T806 1220T759 1258T692 1273Q651 1273 624 1260T579 1222T554 1166T546 1097Q546 1069 560 1039T596 981T642 928T686 885Q716 901 744 923T794 971T829 1029T843 1097ZM1033 218L594 660Q525 622 496 560T466 422Q466 354 493 302T567 213T671 159T793
140Q859 140 920 158T1033 218Z" />
<glyph unicode="&apos;" glyph-name="quotesingle" horiz-adv-x="580" d="M473 1440L412 938H168L107 1440H473Z" />
<glyph unicode="(" glyph-name="parenleft" horiz-adv-x="718" d="M657 -178H472Q382 -81 311 23T190 239T115 474T89 731Q89 875 115 996T190 1227T311 1440T472 1653H657Q623 1592 594 1519T540 1367T496 1205T463 1039T442 879T435 731Q435 488 485 261T657 -178Z" />
<glyph unicode=")" glyph-name="parenright" horiz-adv-x="717" d="M628 731Q628 597 602 475T527 240T407 23T245 -178H61Q181 32 231 260T282 731Q282 800 275 878T255 1039T222 1204T178 1367T124 1519T61 1653H245Q335 1544 406 1441T526 1227T602 996T628 731Z" />
<glyph unicode="*" glyph-name="asterisk" horiz-adv-x="809" d="M727 1130L530 1084L663 938L508 819L404 992L301 819L145 938L281 1084L84 1130L143 1313L327 1230L307 1434H502L482 1232L663 1313L727 1130Z" />
<glyph unicode="+" glyph-name="plus" horiz-adv-x="1005" d="M920 629H651V321H354V629H85V813H354V1106H651V813H920V629Z" />
<glyph unicode="," glyph-name="comma" horiz-adv-x="578" d="M469 150Q469 104 457 56T424 -37T373 -123T310 -195L166 -119Q187 -103 208 -77T234 -25Q205 -16 182 1T141 41T115 92T105 150Q105 187 119 220T158 278T216 317T287 332Q325 332 358 318T416 279T455
221T469 150Z" />
<glyph unicode="-" glyph-name="hyphen" horiz-adv-x="954" d="M813 629H141V813H813V629Z" />
<glyph unicode="." glyph-name="period" horiz-adv-x="574" d="M469 150Q469 112 455 79T416 21T358 -18T287 -33Q249 -33 216 -19T158 20T119 78T105 150Q105 187 119 220T158 278T216 317T287 332Q325 332 358 318T416 279T455 221T469 150Z" />
<glyph unicode="/" glyph-name="slash" horiz-adv-x="979" d="M929 1440L391 0H53L591 1440H929Z" />
<glyph unicode="0" glyph-name="zero" horiz-adv-x="1625" d="M1528 722Q1528 590 1498 484T1416 294T1293 149T1143 49T977 -10T807 -29Q722 -29 636 -9T471 53T324 157T205 302T125 491T96 722Q96 855 125 962T206 1153T326 1297T474 1397T638 1455T807 1474Q897
1474 986 1455T1155 1397T1303 1298T1421 1153T1499 962T1528 722ZM1134 722Q1134 788 1128 857T1107 991T1068 1113T1007 1212T921 1279T807 1304Q748 1304 702 1280T620 1213T560 1114T520 993T497 859T490 722Q490 656 497 587T519 454T559 332T619 233T701
165T807 140Q863 140 909 165T992 234T1055 335T1099 457T1125 590T1134 722Z" />
<glyph unicode="1" glyph-name="one" horiz-adv-x="942" d="M878 0H97V183H289V1257H97V1440H686V183H878V0Z" />
<glyph unicode="2" glyph-name="two" horiz-adv-x="1532" d="M1426 1007Q1426 918 1402 854T1337 743T1241 666T1122 610T992 567T858 527T731 479T621 413T537 318T489 184H1426V0H62Q84 138 125 238T220 411T337 531T468 613T603 669T734 713T851 757T946 816T1010
901T1033 1027Q1033 1095 1010 1146T947 1231T853 1282T736 1299Q671 1299 616 1275T516 1208T439 1103T389 967L82 1137Q123 1221 198 1283T366 1386T557 1448T746 1469Q832 1469 916 1462T1075 1436T1215 1384T1326 1300T1399 1176T1426 1007Z" />
<glyph unicode="3" glyph-name="three" horiz-adv-x="1518" d="M712 -29Q623 -29 519 -9T317 53T139 157T18 303L375 472Q375 403 403 343T479 237T586 166T712 140Q774 140 833 158T937 213T1011 301T1039 422Q1039 497 1014 550T944 638T840 688T712 704H517V874H712Q759
874 803 886T882 923T938 985T959 1073Q959 1129 940 1167T888 1228T809 1262T712 1273Q662 1273 615 1260T532 1221T474 1156T452 1063L167 1272Q209 1324 275 1361T416 1420T569 1453T712 1464Q772 1464 839 1458T973 1435T1100 1392T1207 1324T1280 1226T1308
1093Q1308 1047 1288 1004T1236 923T1163 858T1080 813Q1150 798 1214 764T1326 679T1403 563T1432 422Q1432 325 1400 254T1313 132T1186 51T1033 2T870 -22T712 -29Z" />
<glyph unicode="4" glyph-name="four" horiz-adv-x="1439" d="M1346 328H1246V0H849V328H26Q53 443 96 563T193 800T312 1029T446 1240H723Q637 1097 580 966T487 733Q446 614 423 511H849V1440H1246V511H1346V328Z" />
<glyph unicode="5" glyph-name="five" horiz-adv-x="1526" d="M1458 442Q1458 345 1426 272T1339 147T1212 61T1059 7T896 -21T738 -29Q649 -29 545 -9T343 53T165 157T44 303L401 472Q401 403 429 343T505 237T612 166T738 140Q800 140 859 161T963 223T1037
318T1065 442Q1065 517 1040 574T970 668T866 725T738 744Q580 744 465 732T275 704Q187 686 128 664L278 1440H1339V1256H605L534 905Q578 909 628 911T738 914Q871 914 976 893T1162 837T1298 754T1389 655T1441 548T1458 442Z" />
<glyph unicode="6" glyph-name="six" horiz-adv-x="1615" d="M1528 472Q1528 337 1470 242T1313 87T1083 -1T807 -29Q729 -29 646 -14T484 34T335 121T211 253T127 435T96 672Q96 796 122 903T197 1100T314 1258T467 1376T648 1449T852 1474Q954 1474 1040 1463T1203
1423T1349 1349T1486 1233L1315 1031Q1294 1086 1259 1135T1176 1222T1072 1282T947 1304Q853 1304 771 1274T625 1182T521 1027T470 806Q513 857 565 889T672 941T782 967T887 974Q1022 974 1139 945T1342 854T1478 698T1528 472ZM1134 472Q1134 557 1108 619T1036
723T932 784T807 804Q744 804 687 783T586 721T516 617T490 472Q490 399 516 338T587 233T689 165T807 140Q868 140 927 162T1032 227T1106 331T1134 472Z" />
<glyph unicode="7" glyph-name="seven" horiz-adv-x="1233" d="M605 0H188L810 1256H26V1440H1207V1256L605 0Z" />
<glyph unicode="8" glyph-name="eight" horiz-adv-x="1603" d="M1123 422Q1123 497 1098 550T1028 638T924 688T796 704Q730 704 672 687T572 634T504 546T479 422Q479 353 504 301T573 212T673 158T796 140Q858 140 917 158T1021 213T1095 301T1123 422ZM447
814Q400 831 357 859T281 924T227 1003T207 1093Q207 1166 234 1222T307 1320T413 1388T538 1433T670 1457T796 1464Q856 1464 923 1458T1057 1435T1184 1392T1291 1324T1364 1226T1392 1093Q1392 1047 1372 1004T1320 923T1247 858T1164 813Q1234 798 1298 764T1411
679T1488 563T1517 422Q1517 325 1485 254T1397 132T1270 51T1117 2T954 -22T796 -29Q724 -29 644 -21T484 7T333 60T205 143T118 262T85 422Q85 499 115 565T195 682T310 767T447 814ZM796 1273Q746 1273 703 1262T627 1226T576 1164T557 1073Q557 1022 576 985T627
923T703 886T796 874Q843 874 887 886T966 923T1022 985T1043 1073Q1043 1129 1024 1167T972 1228T893 1262T796 1273Z" />
<glyph unicode="9" glyph-name="nine" horiz-adv-x="1616" d="M1520 772Q1520 586 1462 438T1301 186T1061 27T764 -29Q662 -29 576 -18T413 22T267 96T129 211L301 414Q322 359 357 310T440 223T544 163T669 140Q763 140 845 170T991 263T1095 418T1146 639Q1103
588 1051 555T944 504T834 478T729 471Q594 471 477 500T273 590T138 746T88 972Q88 1107 146 1202T303 1358T533 1446T809 1474Q887 1474 970 1459T1132 1411T1281 1323T1405 1191T1489 1009T1520 772ZM1126 972Q1126 1045 1099 1106T1028 1211T927 1279T809 1304Q747
1304 689 1282T584 1217T510 1113T482 972Q482 888 508 826T580 722T684 660T809 640Q872 640 929 661T1030 723T1100 827T1126 972Z" />
<glyph unicode=":" glyph-name="colon" horiz-adv-x="646" d="M505 844Q505 806 491 773T452 715T394 676T323 662Q285 662 252 676T195 715T156 773T141 844Q141 881 155 914T194 972T252 1011T323 1026Q360 1026 393 1012T451 973T490 915T505 844ZM505 150Q505
112 491 79T452 21T394 -18T323 -33Q285 -33 252 -19T195 20T156 78T141 150Q141 187 155 220T194 278T252 317T323 332Q360 332 393 318T451 279T490 221T505 150Z" />
<glyph unicode=";" glyph-name="semicolon" horiz-adv-x="646" d="M505 844Q505 806 491 773T452 715T394 676T323 662Q285 662 252 676T195 715T156 773T141 844Q141 881 155 914T194 972T252 1011T323 1026Q360 1026 393 1012T451 973T490 915T505 844ZM505
150Q505 104 493 56T460 -37T409 -123T346 -195L202 -119Q223 -103 244 -77T270 -25Q241 -16 218 1T177 41T151 92T141 150Q141 187 155 220T194 278T252 317T323 332Q361 332 394 318T452 279T491 221T505 150Z" />
<glyph unicode="&lt;" glyph-name="less" horiz-adv-x="916" d="M780 1172V963L302 703V690L780 416V220L66 627V767L780 1172Z" />
<glyph unicode="=" glyph-name="equal" horiz-adv-x="1115" d="M975 799H140V983H975V799ZM975 469H140V653H975V469Z" />
<glyph unicode="&gt;" glyph-name="greater" horiz-adv-x="916" d="M850 627L136 220V416L614 690V703L136 963V1172L850 767V627Z" />
<glyph unicode="?" glyph-name="question" horiz-adv-x="1248" d="M654 397H449Q449 483 472 544T529 655T604 747T680 837T738 944T761 1085Q761 1151 750 1202T714 1289T650 1342T554 1361Q501 1361 460 1335T389 1270T344 1182T328 1088L53 1288Q92 1361 149
1410T274 1489T418 1531T573 1544Q643 1544 714 1529T851 1485T974 1412T1074 1313T1141 1187T1166 1036Q1166 960 1144 905T1086 808T1004 735T910 676T816 623T734 566T676 494T654 397ZM737 150Q737 113 723 80T683 21T625 -18T554 -33Q517 -33 484 -19T426
21T387 79T372 150Q372 187 386 220T426 278T484 317T554 332Q591 332 624 318T683 278T722 220T737 150Z" />
<glyph unicode="@" glyph-name="at" horiz-adv-x="1803" d="M1100 523Q1100 571 1093 627T1064 730T1004 809T903 841Q842 841 804 809T745 729T716 626T708 523Q708 491 711 456T722 385T744 318T780 260T832 221T903 206Q959 206 997 239T1058 321T1090 425T1100
523ZM1624 581Q1624 730 1568 860T1414 1088T1186 1242T906 1299Q757 1299 627 1243T399 1089T245 861T188 581Q188 432 244 302T398 74T626 -80T906 -137Q937 -137 972 -132T1039 -119T1099 -102T1143 -83L1188 -196Q1119 -223 1052 -237T906 -251Q792 -251 686
-222T488 -138T321 -9T191 159T108 357T78 577Q78 691 107 797T191 995T320 1162T488 1292T686 1375T906 1405Q1020 1405 1126 1376T1324 1292T1491 1163T1621 995T1704 797T1734 577Q1734 485 1712 398T1643 243T1523 134T1345 92Q1315 92 1282 102T1218 133T1164
183T1130 249Q1110 207 1080 177T1014 127T939 98T864 89Q769 89 695 123T568 215T489 353T461 523Q461 614 488 693T568 831T694 924T864 958Q912 958 956 944T1036 903T1099 840T1143 757L1252 938H1345V374Q1345 323 1365 292T1414 249T1475 244T1533 277Q1575
322 1599 399T1624 581Z" />
<glyph unicode="A" glyph-name="A" horiz-adv-x="1629" d="M1534 689V670Q1532 586 1517 496T1473 316T1406 138T1319 -30T1214 -181T1096 -306L947 -220Q982 -161 1010 -92T1062 54T1101 210T1129 369T1145 524T1151 670Q1151 724 1151 792T1143 932T1118 1070T1068
1191T982 1276T851 1308Q782 1308 733 1285T649 1222T594 1130T562 1021T547 905T543 794V515H974V350H543V0H146V732Q146 889 196 1024T337 1258T557 1414T844 1471Q951 1471 1044 1441T1215 1357T1352 1230T1453 1069T1515 885T1534 689Z" />
<glyph unicode="B" glyph-name="B" horiz-adv-x="1563" d="M1489 391Q1489 330 1469 277T1414 181T1333 103T1233 46T1122 12T1010 0H163V1440H937Q988 1440 1044 1433T1153 1409T1255 1367T1340 1304T1398 1217T1420 1105Q1420 1045 1396 996T1332 909T1239 841T1128
789Q1201 769 1266 736T1381 655T1460 542T1489 391ZM1017 1070Q1017 1192 953 1248T769 1304H560V837H735Q789 837 840 850T930 892T993 965T1017 1070ZM1087 416Q1087 475 1072 526T1026 615T949 674T839 696H560V140H804Q865 140 917 160T1007 216T1066 303T1087
416Z" />
<glyph unicode="C" glyph-name="C" horiz-adv-x="1540" d="M1471 1083L1300 1011Q1280 1076 1247 1130T1167 1222T1061 1282T932 1304Q857 1304 795 1280T683 1212T596 1112T534 991T497 857T485 722Q485 617 509 513T587 326T726 192T932 140Q996 140 1053 161T1156
220T1238 309T1294 419L1467 350Q1429 255 1363 184T1213 65T1032 -5T837 -29Q731 -29 634 -3T452 71T300 187T183 338T108 518T81 722Q81 828 107 925T182 1106T299 1258T452 1374T633 1448T837 1474Q939 1474 1036 1450T1218 1378T1367 1256T1471 1083Z" />
<glyph unicode="D" glyph-name="D" horiz-adv-x="1640" d="M1559 722Q1559 617 1531 523T1453 348T1332 204T1178 94T997 25T798 0H163V1440H798Q900 1440 996 1416T1176 1348T1331 1239T1452 1096T1531 922T1559 722ZM1156 722Q1156 839 1128 944T1039 1130T887
1257T665 1304H560V140H665Q792 140 884 187T1037 315T1127 501T1156 722Z" />
<glyph unicode="E" glyph-name="E" horiz-adv-x="1280" d="M1197 0H163V1440H1197V1256H560V811H1052V628H560V184H1197V0Z" />
<glyph unicode="F" glyph-name="F" horiz-adv-x="1241" d="M560 0H163V1440H1197V1256H560V811H1052V628H560V0Z" />
<glyph unicode="G" glyph-name="G" horiz-adv-x="1587" d="M1471 1083L1300 1011Q1280 1076 1247 1130T1167 1222T1061 1282T932 1304Q857 1304 795 1279T683 1212T596 1112T535 991T498 857T485 722Q485 617 509 513T587 326T726 192T932 140Q998 140 1035 169T1072
273V715H1469V0H1354L1284 113Q1188 40 1073 6T837 -29Q731 -29 634 -3T452 71T300 187T183 338T108 518T81 722Q81 828 107 925T182 1106T299 1258T452 1374T633 1448T837 1474Q939 1474 1036 1450T1218 1378T1367 1256T1471 1083Z" />
<glyph unicode="H" glyph-name="H" horiz-adv-x="1646" d="M560 0H163V1440H560V811H1086V1440H1483V0H1086V628H560V0Z" />
<glyph unicode="I" glyph-name="I" horiz-adv-x="723" d="M560 0H163V1440H560V0Z" />
<glyph unicode="J" glyph-name="J" horiz-adv-x="721" d="M565 452Q565 313 530 170T431 -108T278 -360T82 -564L-72 -471Q-12 -389 33 -285T108 -69T153 156T168 371V1440H565V452Z" />
<glyph unicode="K" glyph-name="K" horiz-adv-x="1480" d="M560 0H163V1440H560V754Q744 895 903 1067T1178 1441H1449Q1343 1260 1206 1103T908 812L1483 0H1069L636 612Q617 599 599 587T560 563V0Z" />
<glyph unicode="L" glyph-name="L" horiz-adv-x="1221" d="M1197 0H163V1440H560V183H1197V0Z" />
<glyph unicode="M" glyph-name="M" horiz-adv-x="2045" d="M450 1074L338 0H93L338 1440H701L1038 341L1379 1440H1742L1946 0H1542L1423 1046L1142 0H779L450 1074Z" />
<glyph unicode="N" glyph-name="N" horiz-adv-x="1642" d="M347 0H163V1440H421L1296 451V1440H1479V0H1221L347 988V0Z" />
<glyph unicode="O" glyph-name="O" horiz-adv-x="1750" d="M1666 722Q1666 548 1606 409T1440 172T1189 23T875 -29Q706 -29 561 23T310 172T144 408T84 722Q84 899 143 1038T308 1274T559 1422T875 1474Q1046 1474 1191 1423T1441 1275T1606 1039T1666 722ZM1262
722Q1262 788 1256 857T1234 991T1191 1113T1120 1212T1017 1279T875 1304Q793 1304 732 1280T628 1213T558 1114T516 993T494 859T488 722Q488 656 494 587T516 454T559 332T630 233T733 165T875 140Q954 140 1013 165T1115 234T1186 335T1231 457T1255 590T1262
722Z" />
<glyph unicode="P" glyph-name="P" horiz-adv-x="1498" d="M560 0H163V1440H941Q1042 1440 1134 1413T1298 1332T1411 1195T1454 1001Q1454 931 1434 870T1379 757T1295 665T1190 596T1070 553T941 538H560V0ZM1052 1001Q1052 1140 982 1219T769 1299H560V674H769Q845
674 898 698T986 767T1036 870T1052 1001Z" />
<glyph unicode="Q" glyph-name="Q" horiz-adv-x="1754" d="M1612 -384L1236 -590Q1175 -538 1116 -473T1003 -334T906 -183T833 -28Q672 -21 535 33T299 185T143 417T86 722Q86 899 145 1038T310 1274T561 1422T877 1474Q1048 1474 1193 1423T1443 1275T1608 1039T1668
722Q1668 573 1624 450T1501 233T1311 77T1069 -11Q1125 -70 1191 -125T1327 -228T1470 -315T1612 -384ZM1264 722Q1264 788 1258 857T1236 991T1193 1113T1122 1212T1019 1279T877 1304Q795 1304 734 1280T630 1213T560 1114T518 993T496 859T490 722Q490 656
496 587T518 454T561 332T632 233T735 165T877 140Q956 140 1015 165T1117 234T1188 335T1233 457T1257 590T1264 722Z" />
<glyph unicode="R" glyph-name="R" horiz-adv-x="1478" d="M560 0H163V1440H871Q971 1440 1064 1417T1228 1343T1342 1212T1385 1018Q1385 929 1348 851T1248 711T1104 609T936 555Q975 489 1017 430T1103 320T1190 225T1272 145Q1364 61 1454 0H959Q899 57 845
137Q799 205 753 305T681 538H560V0ZM982 1018Q982 1163 912 1231T700 1299H560V674H700Q775 674 828 702T916 778T966 888T982 1018Z" />
<glyph unicode="S" glyph-name="S" horiz-adv-x="1427" d="M1343 440Q1343 347 1320 276T1254 153T1153 66T1027 10T882 -20T726 -29Q622 -29 534 -14T369 35T220 122T77 251L281 458Q309 389 358 331T465 230T587 164T706 140Q772 140 830 149T931 181T998 239T1023
331Q1023 373 1004 403T955 454T885 491T806 516T726 535T657 553Q598 570 534 589T408 634T291 691T193 768T126 871T101 1006Q101 1097 123 1167T187 1290T284 1377T407 1434T549 1465T704 1475Q812 1475 900 1455T1064 1398T1201 1310T1319 1195L1115 988Q1091
1060 1049 1118T954 1217T845 1281T735 1304Q666 1304 608 1295T509 1264T444 1206T421 1115Q421 1072 438 1042T483 991T548 957T622 933T698 916T767 899Q827 882 893 863T1023 819T1145 760T1247 682T1317 577T1343 440Z" />
<glyph unicode="T" glyph-name="T" horiz-adv-x="1261" d="M829 0H432V1256H40V1440H1221V1256H829V0Z" />
<glyph unicode="U" glyph-name="U" horiz-adv-x="1630" d="M585 1440Q558 1359 538 1273T505 1100T486 929T479 770Q479 715 479 647T487 507T512 369T562 248T648 163T779 131Q848 131 897 154T981 218T1036 310T1068 419T1083 534T1087 646V1440H1484V708Q1484
551 1434 416T1293 182T1073 26T787 -31Q679 -31 586 -1T416 83T278 210T177 371T115 554T96 750V770Q97 850 112 935T152 1107T214 1277T294 1440H585Z" />
<glyph unicode="V" glyph-name="V" horiz-adv-x="1429" d="M909 0H546L8 1440H413L812 281L1173 1440H1419L909 0Z" />
<glyph unicode="W" glyph-name="W" horiz-adv-x="2057" d="M799 0H436L58 1440H463L702 418L914 1440H1278L1510 392L1771 1440H2016L1597 0H1233L1030 920L799 0Z" />
<glyph unicode="X" glyph-name="X" horiz-adv-x="1390" d="M1381 0H976L638 505L292 0H12L532 662L12 1440H417L744 951L1101 1440H1381L850 793L1381 0Z" />
<glyph unicode="Y" glyph-name="Y" horiz-adv-x="1328" d="M1332 1440L866 605V0H469V583L-2 1440H403L716 716L1052 1440H1332Z" />
<glyph unicode="Z" glyph-name="Z" horiz-adv-x="1388" d="M1298 0H91V184H90L843 1256H91V1440H1298V1256L545 184H1298V0Z" />
<glyph unicode="[" glyph-name="bracketleft" horiz-adv-x="765" d="M675 -205H161V1638H675V1441H507V-8H675V-205Z" />
<glyph unicode="\" glyph-name="backslash" horiz-adv-x="972" d="M920 0H582L52 1442H390L920 0Z" />
<glyph unicode="]" glyph-name="bracketright" horiz-adv-x="764" d="M604 -205H90V-8H256V1441H90V1638H604V-205Z" />
<glyph unicode="^" glyph-name="asciicircum" horiz-adv-x="712" d="M712 819H403L303 1167H290L176 819H0L217 1434H497L712 819Z" />
<glyph unicode="_" glyph-name="underscore" horiz-adv-x="1443" d="M1139 -338H304V-163H1139V-338Z" />
<glyph unicode="`" glyph-name="grave" horiz-adv-x="516" d="M516 1086H316L0 1440H317L516 1086Z" />
<glyph unicode="a" glyph-name="a" horiz-adv-x="1445" d="M1304 0H966V138Q906 56 822 17T636 -23Q504 -23 400 24T224 152T114 344T76 580Q76 706 114 816T224 1007T400 1136T636 1183Q703 1183 763 1163T874 1107T963 1019T1024 904L1174 1155H1304V0ZM964
580Q964 625 960 675T944 774T914 867T864 946T790 1001T690 1021Q633 1021 591 1001T519 946T470 866T439 772T424 674T419 580Q419 536 423 486T439 387T469 293T519 214T591 159T690 138Q742 138 782 159T853 217T905 299T939 394T958 491T964 580Z" />
<glyph unicode="b" glyph-name="b" horiz-adv-x="1446" d="M1369 576Q1369 450 1331 340T1221 149T1045 20T809 -27Q742 -27 682 -7T571 49T482 137T421 251L271 0H141V1580H479V1017Q539 1100 623 1139T809 1178Q941 1178 1045 1131T1221 1003T1331 812T1369
576ZM1026 576Q1026 620 1022 669T1006 768T976 862T926 941T854 996T755 1017Q703 1017 663 996T592 938T540 856T506 761T487 664T481 576Q481 531 485 481T501 382T531 288T581 209T654 154T755 134Q811 134 853 154T926 209T975 289T1006 384T1021 482T1026
576Z" />
<glyph unicode="c" glyph-name="c" horiz-adv-x="1266" d="M1207 869L1061 811Q1026 921 944 980T747 1039Q685 1039 637 1020T552 966T490 887T448 791T425 686T418 580Q418 525 424 469T444 362T483 266T543 188T630 136T747 117Q800 117 848 133T936 178T1007
247T1056 336L1203 282Q1170 203 1116 146T992 51T844 -5T684 -23Q553 -23 441 21T248 146T120 337T74 580Q74 713 119 824T246 1015T439 1139T684 1183Q768 1183 848 1165T996 1108T1119 1010T1207 869Z" />
<glyph unicode="d" glyph-name="d" horiz-adv-x="1446" d="M1305 0H1175L1025 251Q1003 188 965 137T876 50T765 -7T637 -27Q505 -27 401 20T225 148T115 340T77 576Q77 702 115 812T225 1003T401 1131T637 1178Q738 1178 822 1139T967 1017V1580H1305V0ZM965
576Q965 616 959 664T940 761T906 856T855 938T784 995T691 1017Q634 1017 592 997T520 942T471 862T440 768T425 670T420 576Q420 532 424 483T440 384T470 290T520 210T592 155T691 134Q748 134 791 154T864 208T914 287T945 381T960 481T965 576Z" />
<glyph unicode="e" glyph-name="e" horiz-adv-x="1322" d="M419 548Q481 534 543 526T668 518Q734 518 790 530T888 572T954 651T978 773Q978 832 962 881T915 965T837 1019T730 1039Q673 1039 628 1018T548 962T489 879T448 781T425 678T418 580Q418 572 418
564T419 548ZM1252 776Q1252 705 1229 650T1167 552T1075 481T964 434T843 407T721 399Q646 399 573 409T429 443Q440 377 464 318T528 214T626 143T765 117Q818 117 866 133T954 178T1024 247T1074 336L1220 282Q1187 203 1130 146T1000 51T846 -5T684 -23Q552
-23 440 21T247 146T120 337T74 580Q74 712 120 823T247 1014T440 1138T684 1183Q748 1183 815 1174T945 1146T1064 1095T1161 1019T1227 913T1252 776Z" />
<glyph unicode="f" glyph-name="f" horiz-adv-x="998" d="M1220 1630L1029 1314Q1026 1352 1015 1401T979 1495T909 1569T795 1600Q724 1600 681 1572T615 1488T584 1349T576 1156H926V1022H576V0H237V1022H27V1156H237Q237 1315 271 1429T374 1616T547 1724T792
1759Q876 1759 942 1748T1060 1718T1151 1676T1220 1630Z" />
<glyph unicode="g" glyph-name="g" horiz-adv-x="1445" d="M1304 139Q1304 1 1263 -121T1144 -334T953 -479T694 -533Q614 -533 533 -515T379 -460T249 -365T158 -229L304 -174Q323 -223 353 -264T424 -334T512 -380T613 -397Q713 -397 780 -356T889 -249T948
-100T966 70V138Q906 56 822 17T636 -23Q504 -23 400 24T224 152T114 344T76 580Q76 706 114 816T224 1007T400 1136T636 1183Q703 1183 763 1163T874 1107T963 1019T1024 904L1174 1155H1304V139ZM964 580Q964 625 960 675T944 774T914 867T864 946T790 1001T690
1021Q633 1021 591 1001T519 946T470 866T439 772T424 674T419 580Q419 536 423 486T439 387T469 293T519 214T591 159T690 138Q742 138 782 159T853 217T905 299T939 394T958 491T964 580Z" />
<glyph unicode="h" glyph-name="h" horiz-adv-x="1404" d="M1322 662Q1322 545 1294 418T1214 169T1092 -60T936 -246L809 -177Q836 -127 860 -65T903 66T938 210T964 356T980 497T986 625Q986 664 983 708T971 797T945 883T903 955T839 1005T750 1024Q700 1024
661 1002T592 943T541 859T506 763T486 665T480 579V0H141V1580H479V985Q544 1080 638 1131T848 1183Q968 1183 1057 1144T1205 1036T1293 871T1322 662Z" />
<glyph unicode="i" glyph-name="i" horiz-adv-x="623" d="M496 1434Q496 1396 482 1362T442 1303T383 1264T311 1249Q273 1249 240 1263T181 1303T142 1362T127 1434Q127 1472 141 1505T181 1564T239 1603T311 1618Q349 1618 383 1604T442 1564T481 1506T496 1434ZM481
0H142V1154H481V0Z" />
<glyph unicode="j" glyph-name="j" horiz-adv-x="620" d="M498 1434Q498 1396 484 1362T444 1303T386 1264T314 1249Q276 1249 242 1263T183 1303T144 1362T129 1434Q129 1472 143 1505T183 1564T242 1603T314 1618Q352 1618 385 1604T444 1564T483 1506T498 1434ZM483
334Q483 215 453 93T369 -144T239 -359T72 -533L-60 -453Q-9 -383 29 -295T92 -111T131 80T144 264V1155H483V334Z" />
<glyph unicode="k" glyph-name="k" horiz-adv-x="1309" d="M479 0H141V1580H479V543Q562 603 642 675T796 826T931 989T1041 1155H1271Q1201 1037 1105 920T896 695L1275 0H902L633 482Q558 431 479 388V0Z" />
<glyph unicode="l" glyph-name="l" horiz-adv-x="620" d="M479 0H141V1687H271L479 1336V0Z" />
<glyph unicode="m" glyph-name="m" horiz-adv-x="2012" d="M1928 674Q1928 555 1900 426T1822 175T1700 -57T1542 -246L1415 -177Q1444 -125 1468 -60T1512 77T1547 225T1572 376T1588 523T1593 656Q1593 691 1591 732T1583 814T1563 892T1528 959T1472 1006T1391
1024Q1345 1024 1313 1000T1257 936T1221 848T1200 750T1191 655T1188 579V0H851V538Q851 573 852 622T850 726T837 833T807 929T751 997T663 1024Q618 1024 588 999T537 935T505 846T488 747T481 653T480 579V0H141V1155H271L395 886Q437 1026 527 1104T768 1183Q903
1183 992 1127T1132 945Q1161 1000 1196 1044T1275 1119T1372 1166T1489 1183Q1607 1183 1690 1145T1827 1038T1904 877T1928 674Z" />
<glyph unicode="n" glyph-name="n" horiz-adv-x="1404" d="M1322 662Q1322 545 1294 418T1214 169T1092 -60T936 -246L809 -177Q836 -127 860 -65T903 66T938 210T964 356T980 497T986 625Q986 664 983 708T971 797T945 883T903 955T839 1005T750 1024Q700 1024
661 1002T592 943T541 859T506 763T486 665T480 579V0H141V1155H271L426 886Q454 953 496 1008T591 1102T708 1162T848 1183Q968 1183 1057 1144T1205 1036T1293 871T1322 662Z" />
<glyph unicode="o" glyph-name="o" horiz-adv-x="1433" d="M1361 580Q1361 490 1337 411T1271 265T1168 145T1037 54T884 -3T716 -23Q630 -23 549 -3T397 54T265 144T163 265T96 411T72 580Q72 669 96 748T162 895T265 1015T396 1106T549 1163T716 1183Q802 1183
883 1163T1036 1106T1168 1016T1270 895T1337 749T1361 580ZM1017 580Q1017 628 1012 681T993 786T958 885T902 968T823 1025T716 1047Q658 1047 613 1025T535 967T479 882T442 783T422 679T416 580Q416 534 422 482T442 377T478 278T534 194T613 135T716 113Q776
113 822 134T901 192T957 275T992 374T1011 479T1017 580Z" />
<glyph unicode="p" glyph-name="p" horiz-adv-x="1445" d="M1369 580Q1369 454 1331 344T1221 153T1045 24T809 -23Q708 -23 624 16T479 138V-533H141V1155H271L421 904Q443 967 481 1018T570 1106T681 1163T809 1183Q941 1183 1045 1136T1221 1008T1331 816T1369
580ZM1026 580Q1026 624 1022 673T1006 772T976 866T926 945T854 1000T755 1021Q697 1021 655 1001T582 947T532 868T501 774T486 675T481 580Q481 540 487 492T506 394T540 299T591 217T662 160T755 138Q812 138 854 158T926 213T975 293T1006 387T1021 486T1026
580Z" />
<glyph unicode="q" glyph-name="q" horiz-adv-x="1445" d="M1304 -533H966V138Q906 56 822 17T636 -23Q504 -23 400 24T224 152T114 344T76 580Q76 706 114 816T224 1007T400 1136T636 1183Q703 1183 763 1163T874 1107T963 1019T1024 904L1174 1155H1304V-533ZM964
580Q964 625 960 675T944 774T914 867T864 946T790 1001T690 1021Q633 1021 591 1001T519 946T470 866T439 772T424 674T419 580Q419 536 423 486T439 387T469 293T519 214T591 159T690 138Q742 138 782 159T853 217T905 299T939 394T958 491T964 580Z" />
<glyph unicode="r" glyph-name="r" horiz-adv-x="1123" d="M1123 1053L933 738Q921 778 902 828T855 921T788 994T698 1024Q651 1024 617 1000T558 938T519 851T495 753T483 658T480 579V0H141V1155H271L408 886Q436 951 472 1005T555 1099T661 1161T796 1183Q835
1183 883 1177T977 1155T1062 1114T1123 1053Z" />
<glyph unicode="s" glyph-name="s" horiz-adv-x="1207" d="M1135 369Q1135 293 1113 234T1053 132T963 59T852 11T727 -15T598 -23Q512 -23 446 -12T320 23T201 87T68 182L265 343Q292 292 336 251T429 179T522 133T595 117Q618 117 647 118T706 124T765 138T816
162T852 201T866 258Q866 292 849 317T803 362T739 394T667 417T596 434T537 449Q491 462 440 475T339 506T244 548T164 605T109 684T88 791Q88 903 132 978T250 1099T416 1164T605 1183Q671 1183 744 1170T886 1130T1015 1065T1115 978L918 816Q896 876 861 919T784
989T699 1030T618 1043Q582 1043 537 1040T453 1023T386 981T358 902Q358 866 374 841T418 797T479 766T550 744T620 727T681 712Q727 699 778 686T880 655T976 614T1058 556T1114 477T1135 369Z" />
<glyph unicode="t" glyph-name="t" horiz-adv-x="942" d="M576 0H237V1021H27V1155H237V1580H576V1155H926V1021H576V0Z" />
<glyph unicode="u" glyph-name="u" horiz-adv-x="1404" d="M82 494Q82 573 95 658T134 828T196 996T277 1155H524Q499 1080 480 999T447 836T426 676T418 531Q418 492 421 448T434 359T459 273T502 201T565 151T654 132Q704 132 743 154T813 213T864 297T898 393T918
490T925 576V1155H1263V0H1133L978 269Q949 202 908 148T813 54T696 -6T556 -27Q436 -27 347 12T199 120T111 284T82 494Z" />
<glyph unicode="v" glyph-name="v" horiz-adv-x="1192" d="M735 0H431L11 1155H349L657 235L956 1155H1190L735 0Z" />
<glyph unicode="w" glyph-name="w" horiz-adv-x="1730" d="M671 0H367L51 1155H389L587 345L752 1155H1056L1258 323L1453 1155H1687L1337 0H1033L862 702L671 0Z" />
<glyph unicode="x" glyph-name="x" horiz-adv-x="1177" d="M1162 0H824L541 405L252 0H18L453 532L18 1155H356L630 763L928 1155H1162L718 637L1162 0Z" />
<glyph unicode="y" glyph-name="y" horiz-adv-x="1175" d="M1175 1155L755 139Q683 -35 595 -205T403 -533L271 -453Q296 -408 330 -349T397 -227T458 -103T501 10L-4 1155H334L677 374L941 1155H1175Z" />
<glyph unicode="z" glyph-name="z" horiz-adv-x="1132" d="M1056 0H78V134V134L683 1021H78V1155H1056V1021L451 134H1056V0Z" />
<glyph unicode="{" glyph-name="braceleft" horiz-adv-x="886" d="M817 -207H647Q527 -207 452 -190T334 -127T276 -6T260 190V356Q260 407 246 448T206 522T144 582T65 629V788Q108 809 144 835T205 894T245 967T260 1059V1239Q260 1357 275 1434T333 1555T451
1616T647 1634H817V1462Q760 1450 720 1440T654 1408T616 1350T604 1247V1102Q604 1023 587 950T530 823T428 737T274 709Q369 707 432 677T534 595T588 471T604 315V180Q604 104 613 63T646 2T711 -26T817 -43V-207Z" />
<glyph unicode="|" glyph-name="bar" horiz-adv-x="618" d="M458 -205H161V1638H458V-205Z" />
<glyph unicode="}" glyph-name="braceright" horiz-adv-x="885" d="M820 629Q777 608 741 582T680 523T640 448T626 356V190Q626 71 611 -5T552 -127T434 -189T239 -207H69V-43Q133 -34 174 -27T240 1T273 63T282 180V315Q282 399 297 470T351 594T452 677T611
709Q520 705 457 736T355 822T299 950T282 1102V1247Q282 1313 270 1350T232 1408T166 1439T69 1462V1634H239Q359 1634 434 1617T552 1555T610 1434T626 1239V1059Q626 1008 640 968T680 894T741 835T820 788V629Z" />
<glyph unicode="~" glyph-name="asciitilde" horiz-adv-x="1100" d="M981 868Q981 814 965 754T917 642T836 558T723 524Q658 524 607 540T514 577T438 614T374 631Q354 631 341 621T319 594T307 559T303 524H125Q125 581 141 642T190 753T272 836T389 868Q449
868 499 852T592 817T667 782T727 766Q746 766 759 776T781 801T794 835T799 868H981Z" />
<glyph unicode="&#xa0;" glyph-name="nbspace" horiz-adv-x="580" />
<glyph unicode="&#xa1;" glyph-name="exclamdown" horiz-adv-x="667" d="M516 1308Q516 1270 502 1237T463 1179T405 1140T334 1125Q296 1125 263 1139T205 1178T166 1236T151 1308Q151 1345 165 1378T204 1436T262 1475T334 1490Q371 1490 404 1476T462 1437T501
1379T516 1308ZM548 -83H120L231 1062H436L548 -83Z" />
<glyph unicode="&#xa2;" glyph-name="cent" horiz-adv-x="1036" d="M402 421L577 1059Q514 1050 467 1014T389 925T342 811T326 689Q326 617 344 546T402 421ZM821 1469L731 1139Q807 1110 867 1056T958 920L848 874Q830 934 794 978T706 1044L512 335Q557 317
613 317Q654 317 690 330T757 368T809 424T845 495L955 451Q931 390 889 345T792 269T677 224T552 209Q533 209 515 210T479 214L413 -29H280L355 248Q291 275 238 319T148 420T89 545T68 689Q68 791 105 879T208 1031T361 1133T552 1170Q566 1170 579 1170T606
1168L688 1469H821Z" />
<glyph unicode="&#xa3;" glyph-name="sterling" horiz-adv-x="1166" d="M901 596H542V296H1051V149H224V596H73V743H224V802Q224 929 259 1029T358 1198T514 1304T718 1341Q739 1341 768 1337T831 1326T899 1310T965 1289T1021 1264T1060 1238L907 985Q898 1017
883 1057T845 1132T792 1190T720 1214Q664 1214 629 1183T575 1096T549 965T542 802V743H901V596Z" />
<glyph unicode="&#xa4;" glyph-name="currency" horiz-adv-x="893" d="M565 738Q565 761 556 781T532 817T496 842T452 851Q429 851 409 842T374 818T350 782T341 738Q341 715 349 695T373 658T408 633T452 624Q475 624 495 633T531 657T556 694T565 738ZM705
396L564 537Q513 509 454 509Q422 509 394 517T340 539L187 387L100 475L255 630Q229 677 229 736Q229 794 257 845L115 987L203 1074L343 933Q368 947 396 955T454 963Q483 963 510 956T561 936L690 1065L778 977L650 849Q681 798 681 736Q681 706 674 678T652
625L793 484L705 396Z" />
<glyph unicode="&#xa5;" glyph-name="yen" horiz-adv-x="1180" d="M1005 527H752V144H434V527H176V674H399L57 1296H381L631 717L900 1296H1124L778 674H1005V527Z" />
<glyph unicode="&#xa6;" glyph-name="brokenbar" horiz-adv-x="625" d="M461 803H164V1638H461V803ZM461 -205H164V631H461V-205Z" />
<glyph unicode="&#xa7;" glyph-name="section" horiz-adv-x="1269" d="M1163 269Q1163 193 1141 134T1081 32T991 -41T879 -89T755 -115T626 -123Q537 -123 469 -111T341 -74T223 -11T96 82L293 243Q312 207 350 167T434 94T531 39T623 17Q659 17 705 20T794 38T865
81T894 158Q894 206 861 237T773 291T648 330T505 365T362 408T238 469T150 559T116 691Q116 769 142 835T229 954Q116 1035 116 1171Q116 1246 136 1304T193 1405T278 1479T385 1527T506 1554T633 1563Q696 1563 768 1550T910 1511T1041 1447T1143 1358L946 1196Q929
1242 899 1283T830 1356T744 1405T646 1423Q610 1423 565 1420T480 1402T413 1360T386 1282Q386 1247 403 1221T447 1176T509 1144T580 1122T650 1106T709 1092Q755 1079 806 1066T908 1035T1005 993T1086 935T1142 856T1163 749Q1163 671 1138 604T1053 483Q1163
405 1163 269ZM894 638Q894 672 877 697T831 742T767 774T695 798T624 815T565 829Q525 840 486 850T407 873Q396 858 391 840T386 802Q386 766 403 741T447 696T509 664T580 642T650 626T709 612Q750 601 790 590T870 567Q894 597 894 638Z" />
<glyph unicode="&#xa8;" glyph-name="dieresis" horiz-adv-x="672" d="M672 1257Q672 1227 661 1200T629 1153T582 1122T524 1110Q494 1110 467 1121T420 1153T389 1200T377 1257Q377 1287 388 1314T420 1361T467 1392T524 1404Q555 1404 582 1393T629 1361T660
1314T672 1257ZM295 1257Q295 1227 284 1200T252 1153T205 1122T147 1110Q117 1110 90 1121T43 1153T12 1200T0 1257Q0 1287 11 1314T43 1361T90 1392T147 1404Q178 1404 205 1393T252 1361T283 1314T295 1257Z" />
<glyph unicode="&#xa9;" glyph-name="copyright" horiz-adv-x="751" d="M641 726Q641 671 620 623T563 538T479 481T376 460Q321 460 273 481T188 538T131 622T110 726Q110 781 131 829T188 914T272 971T376 992Q431 992 479 971T563 914T620 830T641 726ZM601
725Q601 771 584 812T535 883T463 931T376 949Q329 949 289 932T218 884T170 812T152 725Q152 678 169 638T217 566T288 518T376 500Q422 500 463 517T535 566T583 637T601 725ZM537 814L494 796Q484 828 461 848T402 869Q374 869 353 856T318 821T297 775T290
724Q290 698 296 672T315 626T350 592T402 579Q434 579 457 599T492 648L535 631Q516 583 472 560T378 536Q338 536 304 550T244 590T204 650T189 724Q189 764 203 798T243 858T303 897T378 912Q429 912 473 888T537 814Z" />
<glyph unicode="&#xaa;" glyph-name="ordfeminine" horiz-adv-x="1192" d="M1015 612H770V698Q728 646 671 621T547 596Q455 596 383 629T260 719T182 853T155 1018Q155 1106 181 1183T258 1317T382 1407T547 1440Q593 1440 634 1427T711 1389T773 1331T817 1254L917
1421H1015V612ZM769 1018Q769 1065 762 1117T735 1214T678 1288T585 1318Q528 1318 493 1289T437 1214T410 1117T402 1018Q402 972 409 920T436 822T492 748T585 718Q619 718 646 732T694 771T728 826T752 891T765 957T769 1018ZM1015 299H155V483H1015V299Z" />
<glyph unicode="&#xab;" glyph-name="guillemotleft" horiz-adv-x="1412" d="M688 952V743L310 583V570L688 396V200L74 507V647L688 952ZM1268 952V743L890 583V570L1268 396V200L654 507V647L1268 952Z" />
<glyph unicode="&#xac;" glyph-name="logicalnot" horiz-adv-x="1129" d="M976 369H769V629H140V813H976V369Z" />
<glyph unicode="&#xad;" glyph-name="uni00AD" horiz-adv-x="1282" d="M1141 629H141V813H1141V629Z" />
<glyph unicode="&#xae;" glyph-name="registered" horiz-adv-x="735" d="M418 1246Q418 1316 348 1316H313V1160H348Q386 1160 402 1186T418 1246ZM633 1174Q633 1119 612 1071T555 987T471 930T368 909Q313 909 265 930T180 987T123 1071T102 1174Q102 1229 123
1277T180 1362T264 1419T368 1440Q423 1440 471 1419T555 1362T612 1278T633 1174ZM237 991Q265 971 298 960T368 949Q405 949 438 960T500 991H413Q397 1005 384 1025Q373 1042 361 1067T343 1126H313V991H237ZM214 1336Q182 1305 163 1263T144 1173Q144 1125
163 1084T214 1011V1336ZM593 1173Q593 1219 576 1260T527 1332T455 1380T368 1398Q330 1398 295 1386T231 1351H391Q416 1351 439 1346T480 1327T508 1294T519 1246Q519 1223 510 1204T485 1169T449 1144T407 1130Q420 1107 435 1088T465 1053T493 1025T517 1005Q552
1037 572 1080T593 1173Z" />
<glyph unicode="&#xaf;" glyph-name="overscore" horiz-adv-x="545" d="M545 1142H0V1340H545V1142Z" />
<glyph unicode="&#xb0;" glyph-name="degree" horiz-adv-x="638" d="M545 1239Q545 1192 527 1151T479 1079T407 1030T318 1012Q271 1012 230 1030T159 1078T111 1150T93 1239Q93 1285 110 1326T158 1399T230 1448T318 1466Q365 1466 406 1448T478 1400T527 1328T545
1239ZM402 1239Q402 1273 377 1298T318 1323Q284 1323 260 1298T236 1239Q236 1205 259 1180T318 1155Q353 1155 377 1179T402 1239Z" />
<glyph unicode="&#xb1;" glyph-name="plusminus" horiz-adv-x="1081" d="M958 629H689V321H392V629H123V813H392V1106H689V813H958V629ZM958 0H123V184H958V0Z" />
<glyph unicode="&#xb2;" glyph-name="twosuperior" horiz-adv-x="878" d="M122 736Q135 817 161 871T220 960T290 1014T366 1048Q396 1058 428 1067T486 1092T530 1131T547 1195Q547 1249 513 1276T427 1304Q375 1304 337 1266T282 1154L129 1239Q149 1280 184
1310T261 1359T347 1388T431 1397Q487 1397 542 1390T640 1359T711 1295T738 1186Q738 1123 713 1086T649 1027T563 992T469 962Q419 945 382 918T332 836H738V736H122Z" />
<glyph unicode="&#xb3;" glyph-name="threesuperior" horiz-adv-x="822" d="M400 725Q361 725 314 734T223 762T142 812T84 885L262 970Q262 936 273 908T304 861T349 830T400 819Q426 819 450 826T492 848T522 884T533 932Q533 992 495 1019T400 1046H305V1139H400Q439
1139 468 1159T498 1217Q498 1260 471 1277T400 1294Q379 1294 360 1289T327 1271T305 1240T296 1193L148 1302Q170 1329 201 1347T267 1377T336 1392T400 1397Q438 1397 485 1391T573 1365T642 1313T670 1225Q670 1188 645 1156T588 1105Q616 1096 640 1080T683
1041T713 992T724 932Q724 864 692 824T611 761T505 732T400 725Z" />
<glyph unicode="&#xb4;" glyph-name="acute" horiz-adv-x="516" d="M516 1440L199 1086H0L198 1440H516Z" />
<glyph unicode="&#xb5;" glyph-name="mu" horiz-adv-x="1479" d="M519 -397H182V1155H519V479Q519 417 527 355T559 244T629 163T751 132Q801 132 840 154T910 213T961 297T996 393T1016 490T1022 576V1155H1361V0H1231L1076 269Q1047 202 1011 147T928 52T827
-8T704 -27Q674 -27 645 -21T590 -6T546 12T519 30V-397Z" />
<glyph unicode="&#xb6;" glyph-name="paragraph" horiz-adv-x="1680" d="M1016 0H680V538H580Q515 538 452 553T331 596T226 665T142 757T86 869T66 1001Q66 1112 108 1194T222 1331T386 1413T580 1440H1464V0H1126V1256H1016V0Z" />
<glyph unicode="&#xb7;" glyph-name="middot" horiz-adv-x="601" d="M483 702Q483 664 469 631T430 574T372 535T301 520Q263 520 230 534T172 573T133 631T118 702Q118 740 132 773T171 831T229 870T301 885Q338 885 371 871T429 832T468 774T483 702Z" />
<glyph unicode="&#xb8;" glyph-name="cedilla" horiz-adv-x="426" d="M426 -207Q426 -260 408 -299T359 -364T284 -404T192 -417Q152 -417 117 -402T56 -360T15 -299T0 -223H113Q114 -252 138 -266T188 -281Q229 -281 247 -265T266 -207Q266 -185 251 -173T213
-155T168 -148T129 -146L178 71H292L257 -62Q288 -62 318 -71T373 -99T411 -145T426 -207Z" />
<glyph unicode="&#xb9;" glyph-name="onesuperior" horiz-adv-x="600" d="M136 739V839H218V1288H136V1387H406V839H488V739H136Z" />
<glyph unicode="&#xba;" glyph-name="ordmasculine" horiz-adv-x="1190" d="M1046 1018Q1046 924 1010 846T911 713T767 627T595 596Q505 596 423 626T279 712T181 846T144 1018Q144 1112 180 1189T279 1322T423 1409T595 1440Q685 1440 767 1409T911 1323T1009
1190T1046 1018ZM798 1018Q798 1068 789 1124T758 1227T696 1305T595 1336Q536 1336 497 1305T435 1225T402 1122T392 1018Q392 970 402 915T435 811T497 732T595 700Q656 700 695 731T757 809T789 912T798 1018ZM1025 299H165V483H1025V299Z" />
<glyph unicode="&#xbb;" glyph-name="guillemotright" horiz-adv-x="1412" d="M758 507L144 200V396L522 570V583L144 743V952L758 647V507ZM1338 507L724 200V396L1102 570V583L724 743V952L1338 647V507Z" />
<glyph unicode="&#xbc;" glyph-name="onequarter" horiz-adv-x="1327" d="M1157 1390L368 50H160L939 1390H1157ZM100 739V839H182V1288H100V1387H370V839H452V739H100ZM1198 189V46H1006V189H645Q671 301 721 408T835 606H978Q944 550 920 499T880 406T855 334T842
289H1006V694H1198V289H1242V189H1198Z" />
<glyph unicode="&#xbd;" glyph-name="onehalf" horiz-adv-x="1449" d="M1157 1390L368 50H160L939 1390H1157ZM100 739V839H182V1288H100V1387H370V839H452V739H100ZM760 45Q773 126 799 180T858 268T928 323T1004 357Q1033 367 1065 376T1123 401T1167 440T1184
504Q1184 558 1150 585T1065 613Q1013 613 975 575T920 463L767 547Q787 589 822 619T899 668T985 697T1069 706Q1125 706 1180 699T1278 668T1349 604T1376 495Q1376 432 1352 395T1288 336T1201 301T1107 271Q1057 254 1020 227T969 145H1376V45H760Z" />
<glyph unicode="&#xbe;" glyph-name="threequarters" horiz-adv-x="1515" d="M1331 1390L543 50H335L1113 1390H1331ZM1373 189V46H1180V189H820Q846 301 896 408T1010 606H1153Q1119 550 1095 499T1054 406T1029 334T1017 289H1180V694H1373V289H1416V189H1373ZM379
725Q340 725 293 734T202 762T121 812T63 885L241 970Q241 936 252 908T283 861T328 830T379 819Q405 819 429 826T471 848T501 884T512 932Q512 992 474 1019T379 1046H284V1139H379Q418 1139 447 1159T477 1217Q477 1260 450 1277T379 1294Q358 1294 339 1289T306
1271T284 1240T275 1193L127 1302Q149 1329 180 1347T246 1377T315 1392T379 1397Q417 1397 464 1391T552 1365T621 1313T649 1225Q649 1188 624 1156T567 1105Q595 1096 619 1080T662 1041T692 992T703 932Q703 864 671 824T590 761T484 732T379 725Z" />
<glyph unicode="&#xbf;" glyph-name="questiondown" horiz-adv-x="1244" d="M874 1312Q874 1275 860 1242T820 1184T762 1145T692 1130Q655 1130 622 1144T564 1184T525 1242T510 1312Q510 1349 524 1382T564 1440T622 1479T692 1494Q729 1494 762 1480T820 1440T859
1382T874 1312ZM1194 173Q1155 100 1098 51T973 -28T828 -70T673 -83Q603 -83 532 -68T396 -24T273 49T173 148T106 274T81 425Q81 501 103 556T161 653T243 726T337 785T431 838T513 895T571 967T593 1064H798Q798 978 775 917T717 806T642 714T566 624T508 517T485
376Q485 310 496 259T532 172T596 119T692 100Q744 100 786 126T857 192T902 280T918 374L1194 173Z" />
<glyph unicode="&#xc0;" glyph-name="Agrave" horiz-adv-x="1629" d="M1534 689V670Q1532 586 1517 496T1473 316T1406 138T1319 -30T1214 -181T1096 -306L947 -220Q982 -161 1010 -92T1062 54T1101 210T1129 369T1145 524T1151 670Q1151 724 1151 792T1143 932T1118
1070T1068 1191T982 1276T851 1308Q782 1308 733 1285T649 1222T594 1130T562 1021T547 905T543 794V515H974V350H543V0H146V732Q146 889 196 1024T337 1258T557 1414T844 1471Q951 1471 1044 1441T1215 1357T1352 1230T1453 1069T1515 885T1534 689ZM932 1572H732L416
1926H733L932 1572Z" />
<glyph unicode="&#xc1;" glyph-name="Aacute" horiz-adv-x="1629" d="M1534 689V670Q1532 586 1517 496T1473 316T1406 138T1319 -30T1214 -181T1096 -306L947 -220Q982 -161 1010 -92T1062 54T1101 210T1129 369T1145 524T1151 670Q1151 724 1151 792T1143 932T1118
1070T1068 1191T982 1276T851 1308Q782 1308 733 1285T649 1222T594 1130T562 1021T547 905T543 794V515H974V350H543V0H146V732Q146 889 196 1024T337 1258T557 1414T844 1471Q951 1471 1044 1441T1215 1357T1352 1230T1453 1069T1515 885T1534 689ZM1250 1917L933
1563H734L932 1917H1250Z" />
<glyph unicode="&#xc2;" glyph-name="Acircumflex" horiz-adv-x="1629" d="M1534 689V670Q1532 586 1517 496T1473 316T1406 138T1319 -30T1214 -181T1096 -306L947 -220Q982 -161 1010 -92T1062 54T1101 210T1129 369T1145 524T1151 670Q1151 724 1151 792T1143
932T1118 1070T1068 1191T982 1276T851 1308Q782 1308 733 1285T649 1222T594 1130T562 1021T547 905T543 794V515H974V350H543V0H146V732Q146 889 196 1024T337 1258T557 1414T844 1471Q951 1471 1044 1441T1215 1357T1352 1230T1453 1069T1515 885T1534 689ZM1103
1561H853L788 1699L722 1561H576L769 1916H904L1103 1561Z" />
<glyph unicode="&#xc3;" glyph-name="Atilde" horiz-adv-x="1629" d="M1534 689V670Q1532 586 1517 496T1473 316T1406 138T1319 -30T1214 -181T1096 -306L947 -220Q982 -161 1010 -92T1062 54T1101 210T1129 369T1145 524T1151 670Q1151 724 1151 792T1143 932T1118
1070T1068 1191T982 1276T851 1308Q782 1308 733 1285T649 1222T594 1130T562 1021T547 905T543 794V515H974V350H543V0H146V732Q146 889 196 1024T337 1258T557 1414T844 1471Q951 1471 1044 1441T1215 1357T1352 1230T1453 1069T1515 885T1534 689ZM1229 1881Q1225
1831 1210 1776T1167 1675T1095 1598T993 1567Q934 1567 887 1582T801 1615T731 1649T671 1664Q653 1664 641 1655T621 1631T610 1599T606 1567H451Q453 1619 468 1674T512 1776T585 1851T690 1881Q744 1881 791 1866T878 1834T949 1801T1004 1786Q1021 1786 1033
1795T1053 1819T1065 1850T1069 1881H1229Z" />
<glyph unicode="&#xc4;" glyph-name="Adieresis" horiz-adv-x="1629" d="M1534 689V670Q1532 586 1517 496T1473 316T1406 138T1319 -30T1214 -181T1096 -306L947 -220Q982 -161 1010 -92T1062 54T1101 210T1129 369T1145 524T1151 670Q1151 724 1151 792T1143
932T1118 1070T1068 1191T982 1276T851 1308Q782 1308 733 1285T649 1222T594 1130T562 1021T547 905T543 794V515H974V350H543V0H146V732Q146 889 196 1024T337 1258T557 1414T844 1471Q951 1471 1044 1441T1215 1357T1352 1230T1453 1069T1515 885T1534 689ZM1176
1699Q1176 1669 1165 1642T1133 1595T1086 1564T1028 1552Q998 1552 971 1563T924 1595T893 1642T881 1699Q881 1729 892 1756T924 1803T971 1834T1028 1846Q1059 1846 1086 1835T1133 1803T1164 1756T1176 1699ZM799 1699Q799 1669 788 1642T756 1595T709 1564T651
1552Q621 1552 594 1563T547 1595T516 1642T504 1699Q504 1729 515 1756T547 1803T594 1834T651 1846Q682 1846 709 1835T756 1803T787 1756T799 1699Z" />
<glyph unicode="&#xc5;" glyph-name="Aring" horiz-adv-x="1632" d="M1068 1643Q1068 1586 1043 1538T974 1459Q1106 1433 1211 1360T1389 1183T1500 951T1536 689V670Q1534 586 1519 496T1475 316T1408 138T1321 -30T1216 -181T1098 -306L949 -220Q984 -161 1012
-92T1064 54T1103 210T1131 369T1147 524T1153 670Q1153 724 1153 792T1145 932T1120 1070T1070 1191T984 1276T853 1308Q784 1308 735 1285T651 1222T596 1130T564 1021T549 905T545 794V515H976V350H545V0H148V732Q148 871 187 993T299 1211T475 1371T708 1459Q665
1490 640 1538T615 1643Q615 1690 632 1731T681 1804T753 1853T841 1871Q887 1871 928 1853T1001 1804T1050 1732T1068 1643ZM925 1643Q925 1677 900 1702T841 1727Q806 1727 783 1702T759 1643Q759 1609 782 1584T841 1559Q875 1559 900 1583T925 1643Z" />
<glyph unicode="&#xc6;" glyph-name="AE" horiz-adv-x="2271" d="M2188 0H1337Q1286 -91 1226 -168T1097 -306L948 -220Q983 -161 1011 -92T1063 54T1102 210T1130 369T1146 524T1152 670Q1152 724 1151 792T1142 932T1116 1070T1063 1191T976 1276T845 1308Q776
1308 727 1285T645 1222T591 1130T561 1021T547 905T544 794V515H975V350H544V0H147V732Q147 889 197 1019T338 1242T558 1388T845 1440H2188V1256H1551V811H2043V628H1551V184H2188V0Z" />
<glyph unicode="&#xc7;" glyph-name="Ccedilla" horiz-adv-x="1543" d="M1041 -247Q1041 -300 1023 -339T974 -404T899 -444T807 -457Q767 -457 732 -442T671 -400T630 -339T615 -263H728Q729 -292 753 -306T803 -321Q844 -321 862 -305T881 -247Q881 -225 866
-213T828 -195T783 -188T744 -186L780 -26Q631 -16 504 45T284 206T137 438T84 722Q84 828 110 925T185 1106T302 1258T455 1374T636 1448T840 1474Q942 1474 1039 1450T1221 1378T1370 1256T1474 1083L1303 1011Q1283 1076 1250 1130T1170 1222T1064 1282T935
1304Q860 1304 798 1280T686 1212T599 1112T537 991T500 857T488 722Q488 617 512 513T590 326T729 192T935 140Q999 140 1056 161T1159 220T1241 309T1297 419L1470 350Q1435 261 1375 193T1237 78T1071 5T891 -27L872 -102Q903 -102 933 -111T988 -139T1026 -185T1041
-247Z" />
<glyph unicode="&#xc8;" glyph-name="Egrave" horiz-adv-x="1280" d="M1197 0H163V1440H1197V1256H560V811H1052V628H560V184H1197V0ZM795 1540H595L279 1894H596L795 1540Z" />
<glyph unicode="&#xc9;" glyph-name="Eacute" horiz-adv-x="1280" d="M1197 0H163V1440H1197V1256H560V811H1052V628H560V184H1197V0ZM1100 1890L783 1536H584L782 1890H1100Z" />
<glyph unicode="&#xca;" glyph-name="Ecircumflex" horiz-adv-x="1280" d="M1197 0H163V1440H1197V1256H560V811H1052V628H560V184H1197V0ZM944 1538H694L629 1676L563 1538H417L610 1893H745L944 1538Z" />
<glyph unicode="&#xcb;" glyph-name="Edieresis" horiz-adv-x="1280" d="M1197 0H163V1440H1197V1256H560V811H1052V628H560V184H1197V0ZM1016 1684Q1016 1654 1005 1627T973 1580T926 1549T868 1537Q838 1537 811 1548T764 1580T733 1627T721 1684Q721 1714 732
1741T764 1788T811 1819T868 1831Q899 1831 926 1820T973 1788T1004 1741T1016 1684ZM639 1684Q639 1654 628 1627T596 1580T549 1549T491 1537Q461 1537 434 1548T387 1580T356 1627T344 1684Q344 1714 355 1741T387 1788T434 1819T491 1831Q522 1831 549 1820T596
1788T627 1741T639 1684Z" />
<glyph unicode="&#xcc;" glyph-name="Igrave" horiz-adv-x="723" d="M560 0H163V1440H560V0ZM469 1540H269L-47 1894H270L469 1540Z" />
<glyph unicode="&#xcd;" glyph-name="Iacute" horiz-adv-x="723" d="M560 0H163V1440H560V0ZM777 1894L460 1540H261L459 1894H777Z" />
<glyph unicode="&#xce;" glyph-name="Icircumflex" horiz-adv-x="723" d="M560 0H163V1440H560V0ZM625 1537H375L310 1675L244 1537H98L291 1892H426L625 1537Z" />
<glyph unicode="&#xcf;" glyph-name="Idieresis" horiz-adv-x="723" d="M560 0H163V1440H560V0ZM698 1683Q698 1653 687 1626T655 1579T608 1548T550 1536Q520 1536 493 1547T446 1579T415 1626T403 1683Q403 1713 414 1740T446 1787T493 1818T550 1830Q581 1830
608 1819T655 1787T686 1740T698 1683ZM321 1683Q321 1653 310 1626T278 1579T231 1548T173 1536Q143 1536 116 1547T69 1579T38 1626T26 1683Q26 1713 37 1740T69 1787T116 1818T173 1830Q204 1830 231 1819T278 1787T309 1740T321 1683Z" />
<glyph unicode="&#xd0;" glyph-name="Eth" horiz-adv-x="1706" d="M229 629H30V813H229V1440H864Q966 1440 1062 1416T1242 1348T1397 1239T1518 1096T1597 922T1625 722Q1625 617 1597 523T1519 348T1398 204T1244 94T1063 25T864 0H229V629ZM866 629H626V140H731Q858
140 950 187T1103 315T1193 501T1223 722Q1223 839 1195 944T1106 1130T953 1257T731 1304H626V813H866V629Z" />
<glyph unicode="&#xd1;" glyph-name="Ntilde" horiz-adv-x="1642" d="M347 0H163V1440H421L1296 451V1440H1479V0H1221L347 988V0ZM1210 1853Q1206 1803 1191 1748T1148 1647T1076 1570T974 1539Q915 1539 868 1554T782 1587T712 1621T652 1636Q634 1636 622 1627T602
1603T591 1571T587 1539H432Q434 1591 449 1646T493 1748T566 1823T671 1853Q725 1853 772 1838T859 1806T930 1773T985 1758Q1002 1758 1014 1767T1034 1791T1046 1822T1050 1853H1210Z" />
<glyph unicode="&#xd2;" glyph-name="Ograve" horiz-adv-x="1750" d="M1666 722Q1666 548 1606 409T1440 172T1189 23T875 -29Q706 -29 561 23T310 172T144 408T84 722Q84 899 143 1038T308 1274T559 1422T875 1474Q1046 1474 1191 1423T1441 1275T1606 1039T1666
722ZM1262 722Q1262 788 1256 857T1234 991T1191 1113T1120 1212T1017 1279T875 1304Q793 1304 732 1280T628 1213T558 1114T516 993T494 859T488 722Q488 656 494 587T516 454T559 332T630 233T733 165T875 140Q954 140 1013 165T1115 234T1186 335T1231 457T1255
590T1262 722ZM957 1564H757L441 1918H758L957 1564Z" />
<glyph unicode="&#xd3;" glyph-name="Oacute" horiz-adv-x="1750" d="M1666 722Q1666 548 1606 409T1440 172T1189 23T875 -29Q706 -29 561 23T310 172T144 408T84 722Q84 899 143 1038T308 1274T559 1422T875 1474Q1046 1474 1191 1423T1441 1275T1606 1039T1666
722ZM1262 722Q1262 788 1256 857T1234 991T1191 1113T1120 1212T1017 1279T875 1304Q793 1304 732 1280T628 1213T558 1114T516 993T494 859T488 722Q488 656 494 587T516 454T559 332T630 233T733 165T875 140Q954 140 1013 165T1115 234T1186 335T1231 457T1255
590T1262 722ZM1305 1918L988 1564H789L987 1918H1305Z" />
<glyph unicode="&#xd4;" glyph-name="Ocircumflex" horiz-adv-x="1750" d="M1666 722Q1666 548 1606 409T1440 172T1189 23T875 -29Q706 -29 561 23T310 172T144 408T84 722Q84 899 143 1038T308 1274T559 1422T875 1474Q1046 1474 1191 1423T1441 1275T1606 1039T1666
722ZM1262 722Q1262 788 1256 857T1234 991T1191 1113T1120 1212T1017 1279T875 1304Q793 1304 732 1280T628 1213T558 1114T516 993T494 859T488 722Q488 656 494 587T516 454T559 332T630 233T733 165T875 140Q954 140 1013 165T1115 234T1186 335T1231 457T1255
590T1262 722ZM1138 1566H888L823 1704L757 1566H611L804 1921H939L1138 1566Z" />
<glyph unicode="&#xd5;" glyph-name="Otilde" horiz-adv-x="1750" d="M1666 722Q1666 548 1606 409T1440 172T1189 23T875 -29Q706 -29 561 23T310 172T144 408T84 722Q84 899 143 1038T308 1274T559 1422T875 1474Q1046 1474 1191 1423T1441 1275T1606 1039T1666
722ZM1262 722Q1262 788 1256 857T1234 991T1191 1113T1120 1212T1017 1279T875 1304Q793 1304 732 1280T628 1213T558 1114T516 993T494 859T488 722Q488 656 494 587T516 454T559 332T630 233T733 165T875 140Q954 140 1013 165T1115 234T1186 335T1231 457T1255
590T1262 722ZM1264 1881Q1260 1831 1245 1776T1202 1675T1130 1598T1028 1567Q969 1567 922 1582T836 1615T766 1649T706 1664Q688 1664 676 1655T656 1631T645 1599T641 1567H486Q488 1619 503 1674T547 1776T620 1851T725 1881Q779 1881 826 1866T913 1834T984
1801T1039 1786Q1056 1786 1068 1795T1088 1819T1100 1850T1104 1881H1264Z" />
<glyph unicode="&#xd6;" glyph-name="Odieresis" horiz-adv-x="1750" d="M1666 722Q1666 548 1606 409T1440 172T1189 23T875 -29Q706 -29 561 23T310 172T144 408T84 722Q84 899 143 1038T308 1274T559 1422T875 1474Q1046 1474 1191 1423T1441 1275T1606 1039T1666
722ZM1262 722Q1262 788 1256 857T1234 991T1191 1113T1120 1212T1017 1279T875 1304Q793 1304 732 1280T628 1213T558 1114T516 993T494 859T488 722Q488 656 494 587T516 454T559 332T630 233T733 165T875 140Q954 140 1013 165T1115 234T1186 335T1231 457T1255
590T1262 722ZM1211 1702Q1211 1672 1200 1645T1168 1598T1121 1567T1063 1555Q1033 1555 1006 1566T959 1598T928 1645T916 1702Q916 1732 927 1759T959 1806T1006 1837T1063 1849Q1094 1849 1121 1838T1168 1806T1199 1759T1211 1702ZM834 1702Q834 1672 823
1645T791 1598T744 1567T686 1555Q656 1555 629 1566T582 1598T551 1645T539 1702Q539 1732 550 1759T582 1806T629 1837T686 1849Q717 1849 744 1838T791 1806T822 1759T834 1702Z" />
<glyph unicode="&#xd7;" glyph-name="multiply" horiz-adv-x="1113" d="M695 746L999 312H677L526 526L373 312H106L414 687L115 1113H437L583 905L742 1113H1011L695 746Z" />
<glyph unicode="&#xd8;" glyph-name="Oslash" horiz-adv-x="1750" d="M516 455L1151 1177Q1107 1235 1040 1269T875 1304Q793 1304 732 1280T628 1213T558 1114T516 993T494 859T488 722Q488 656 494 588T516 455ZM1232 998L594 274Q639 214 707 177T875 140Q954
140 1013 165T1115 234T1186 335T1231 457T1255 590T1262 722Q1262 791 1256 861T1232 998ZM1621 1440L1460 1257Q1557 1160 1611 1026T1666 722Q1666 548 1606 409T1440 172T1189 23T875 -29Q747 -29 635 0T428 85L353 0H115L287 195Q191 292 138 424T84 722Q84
899 143 1038T308 1274T559 1422T875 1474Q1001 1474 1112 1447T1317 1365L1383 1440H1621Z" />
<glyph unicode="&#xd9;" glyph-name="Ugrave" horiz-adv-x="1630" d="M585 1440Q558 1359 538 1273T505 1100T486 929T479 770Q479 715 479 647T487 507T512 369T562 248T648 163T779 131Q848 131 897 154T981 218T1036 310T1068 419T1083 534T1087 646V1440H1484V708Q1484
551 1434 416T1293 182T1073 26T787 -31Q679 -31 586 -1T416 83T278 210T177 371T115 554T96 750V770Q97 850 112 935T152 1107T214 1277T294 1440H585ZM928 1490H728L412 1844H729L928 1490Z" />
<glyph unicode="&#xda;" glyph-name="Uacute" horiz-adv-x="1630" d="M585 1440Q558 1359 538 1273T505 1100T486 929T479 770Q479 715 479 647T487 507T512 369T562 248T648 163T779 131Q848 131 897 154T981 218T1036 310T1068 419T1083 534T1087 646V1440H1484V708Q1484
551 1434 416T1293 182T1073 26T787 -31Q679 -31 586 -1T416 83T278 210T177 371T115 554T96 750V770Q97 850 112 935T152 1107T214 1277T294 1440H585ZM1247 1844L930 1490H731L929 1844H1247Z" />
<glyph unicode="&#xdb;" glyph-name="Ucircumflex" horiz-adv-x="1630" d="M585 1440Q558 1359 538 1273T505 1100T486 929T479 770Q479 715 479 647T487 507T512 369T562 248T648 163T779 131Q848 131 897 154T981 218T1036 310T1068 419T1083 534T1087 646V1440H1484V708Q1484
551 1434 416T1293 182T1073 26T787 -31Q679 -31 586 -1T416 83T278 210T177 371T115 554T96 750V770Q97 850 112 935T152 1107T214 1277T294 1440H585ZM1079 1538H829L764 1676L698 1538H552L745 1893H880L1079 1538Z" />
<glyph unicode="&#xdc;" glyph-name="Udieresis" horiz-adv-x="1630" d="M585 1440Q558 1359 538 1273T505 1100T486 929T479 770Q479 715 479 647T487 507T512 369T562 248T648 163T779 131Q848 131 897 154T981 218T1036 310T1068 419T1083 534T1087 646V1440H1484V708Q1484
551 1434 416T1293 182T1073 26T787 -31Q679 -31 586 -1T416 83T278 210T177 371T115 554T96 750V770Q97 850 112 935T152 1107T214 1277T294 1440H585ZM1146 1692Q1146 1662 1135 1635T1103 1588T1056 1557T998 1545Q968 1545 941 1556T894 1588T863 1635T851
1692Q851 1722 862 1749T894 1796T941 1827T998 1839Q1029 1839 1056 1828T1103 1796T1134 1749T1146 1692ZM769 1692Q769 1662 758 1635T726 1588T679 1557T621 1545Q591 1545 564 1556T517 1588T486 1635T474 1692Q474 1722 485 1749T517 1796T564 1827T621 1839Q652
1839 679 1828T726 1796T757 1749T769 1692Z" />
<glyph unicode="&#xdd;" glyph-name="Yacute" horiz-adv-x="1328" d="M1332 1440L866 605V0H469V583L-2 1440H403L716 716L1052 1440H1332ZM1145 1744L828 1390H629L827 1744H1145Z" />
<glyph unicode="&#xde;" glyph-name="Thorn" horiz-adv-x="1502" d="M560 1029V404H769Q845 404 898 428T986 497T1036 600T1052 731Q1052 870 982 949T769 1029H560ZM560 0H163V1440H560V1170H941Q1042 1170 1134 1143T1298 1062T1411 925T1454 731Q1454 661
1434 600T1379 487T1295 395T1190 326T1070 283T941 268H560V0Z" />
<glyph unicode="&#xdf;" glyph-name="germandbls" horiz-adv-x="1832" d="M1029 1314Q1029 1339 1026 1370T1013 1433T987 1495T944 1548T882 1586T795 1600Q738 1600 700 1578T637 1520T600 1436T582 1340T577 1243T576 1156V0H237V1022H27V1156H237Q237 1295
265 1407T359 1597T531 1717T792 1759Q847 1759 905 1753T1018 1729T1122 1684T1207 1611T1265 1506T1286 1364Q1286 1295 1266 1241T1216 1145T1152 1069T1087 1007T1037 954T1017 902Q1017 867 1034 841T1078 796T1140 764T1211 742T1281 726T1340 712Q1386 699
1437 686T1539 655T1636 613T1717 555T1773 476T1794 369Q1794 293 1772 234T1712 132T1622 59T1510 11T1386 -15T1257 -23Q1168 -23 1100 -11T972 26T854 89T727 182L924 343Q943 307 981 267T1065 194T1161 139T1254 117Q1290 117 1336 120T1425 138T1496 181T1525
258Q1525 306 1492 337T1404 391T1279 430T1136 465T993 508T869 569T781 659T747 791Q747 847 759 887T791 958T836 1012T888 1057T939 1102T985 1154T1017 1222T1029 1314Z" />
<glyph unicode="&#xe0;" glyph-name="agrave" horiz-adv-x="1445" d="M1304 0H966V138Q906 56 822 17T636 -23Q504 -23 400 24T224 152T114 344T76 580Q76 706 114 816T224 1007T400 1136T636 1183Q703 1183 763 1163T874 1107T963 1019T1024 904L1174 1155H1304V0ZM964
580Q964 625 960 675T944 774T914 867T864 946T790 1001T690 1021Q633 1021 591 1001T519 946T470 866T439 772T424 674T419 580Q419 536 423 486T439 387T469 293T519 214T591 159T690 138Q742 138 782 159T853 217T905 299T939 394T958 491T964 580ZM782 1283H582L266
1637H583L782 1283Z" />
<glyph unicode="&#xe1;" glyph-name="aacute" horiz-adv-x="1445" d="M1304 0H966V138Q906 56 822 17T636 -23Q504 -23 400 24T224 152T114 344T76 580Q76 706 114 816T224 1007T400 1136T636 1183Q703 1183 763 1163T874 1107T963 1019T1024 904L1174 1155H1304V0ZM964
580Q964 625 960 675T944 774T914 867T864 946T790 1001T690 1021Q633 1021 591 1001T519 946T470 866T439 772T424 674T419 580Q419 536 423 486T439 387T469 293T519 214T591 159T690 138Q742 138 782 159T853 217T905 299T939 394T958 491T964 580ZM1077 1637L760
1283H561L759 1637H1077Z" />
<glyph unicode="&#xe2;" glyph-name="acircumflex" horiz-adv-x="1445" d="M1304 0H966V138Q906 56 822 17T636 -23Q504 -23 400 24T224 152T114 344T76 580Q76 706 114 816T224 1007T400 1136T636 1183Q703 1183 763 1163T874 1107T963 1019T1024 904L1174 1155H1304V0ZM964
580Q964 625 960 675T944 774T914 867T864 946T790 1001T690 1021Q633 1021 591 1001T519 946T470 866T439 772T424 674T419 580Q419 536 423 486T439 387T469 293T519 214T591 159T690 138Q742 138 782 159T853 217T905 299T939 394T958 491T964 580ZM954 1280H704L639
1418L573 1280H427L620 1635H755L954 1280Z" />
<glyph unicode="&#xe3;" glyph-name="atilde" horiz-adv-x="1445" d="M1304 0H966V138Q906 56 822 17T636 -23Q504 -23 400 24T224 152T114 344T76 580Q76 706 114 816T224 1007T400 1136T636 1183Q703 1183 763 1163T874 1107T963 1019T1024 904L1174 1155H1304V0ZM964
580Q964 625 960 675T944 774T914 867T864 946T790 1001T690 1021Q633 1021 591 1001T519 946T470 866T439 772T424 674T419 580Q419 536 423 486T439 387T469 293T519 214T591 159T690 138Q742 138 782 159T853 217T905 299T939 394T958 491T964 580ZM1079 1564Q1075
1514 1060 1459T1017 1358T945 1281T843 1250Q784 1250 737 1265T651 1298T581 1332T521 1347Q503 1347 491 1338T471 1314T460 1282T456 1250H301Q303 1302 318 1357T362 1459T435 1534T540 1564Q594 1564 641 1549T728 1517T799 1484T854 1469Q871 1469 883 1478T903
1502T915 1533T919 1564H1079Z" />
<glyph unicode="&#xe4;" glyph-name="adieresis" horiz-adv-x="1445" d="M1304 0H966V138Q906 56 822 17T636 -23Q504 -23 400 24T224 152T114 344T76 580Q76 706 114 816T224 1007T400 1136T636 1183Q703 1183 763 1163T874 1107T963 1019T1024 904L1174 1155H1304V0ZM964
580Q964 625 960 675T944 774T914 867T864 946T790 1001T690 1021Q633 1021 591 1001T519 946T470 866T439 772T424 674T419 580Q419 536 423 486T439 387T469 293T519 214T591 159T690 138Q742 138 782 159T853 217T905 299T939 394T958 491T964 580ZM1026 1417Q1026
1387 1015 1360T983 1313T936 1282T878 1270Q848 1270 821 1281T774 1313T743 1360T731 1417Q731 1447 742 1474T774 1521T821 1552T878 1564Q909 1564 936 1553T983 1521T1014 1474T1026 1417ZM649 1417Q649 1387 638 1360T606 1313T559 1282T501 1270Q471 1270
444 1281T397 1313T366 1360T354 1417Q354 1447 365 1474T397 1521T444 1552T501 1564Q532 1564 559 1553T606 1521T637 1474T649 1417Z" />
<glyph unicode="&#xe5;" glyph-name="aring" horiz-adv-x="1445" d="M1304 0H966V138Q906 56 822 17T636 -23Q504 -23 400 24T224 152T114 344T76 580Q76 706 114 816T224 1007T400 1136T636 1183Q703 1183 763 1163T874 1107T963 1019T1024 904L1174 1155H1304V0ZM964
580Q964 625 960 675T944 774T914 867T864 946T790 1001T690 1021Q633 1021 591 1001T519 946T470 866T439 772T424 674T419 580Q419 536 423 486T439 387T469 293T519 214T591 159T690 138Q742 138 782 159T853 217T905 299T939 394T958 491T964 580ZM917 1492Q917
1445 899 1404T851 1332T779 1283T690 1265Q643 1265 602 1283T530 1331T482 1403T464 1492Q464 1539 481 1580T530 1653T602 1702T690 1720Q736 1720 777 1702T850 1653T899 1581T917 1492ZM774 1492Q774 1526 749 1551T690 1576Q655 1576 632 1551T608 1492Q608
1458 631 1433T690 1408Q724 1408 749 1432T774 1492Z" />
<glyph unicode="&#xe6;" glyph-name="ae" horiz-adv-x="2152" d="M904 612Q841 625 779 633T654 642Q588 642 532 630T434 588T368 509T344 387Q344 328 360 279T407 195T485 141T593 121Q678 121 737 154T834 248T887 393T904 580V612ZM1249 548Q1311 534 1373
526T1498 518Q1564 518 1620 530T1718 572T1784 651T1808 773Q1808 832 1792 881T1745 965T1667 1019T1560 1039Q1503 1039 1458 1018T1378 962T1319 879T1278 781T1255 678T1248 580Q1248 572 1248 564T1249 548ZM2082 776Q2082 705 2059 650T1997 552T1905 481T1794
434T1673 407T1551 399Q1476 399 1403 409T1259 443Q1270 377 1294 318T1358 214T1457 143T1595 117Q1648 117 1696 133T1784 178T1854 247T1904 336L2050 282Q2017 203 1960 146T1830 51T1676 -5T1514 -23Q1422 -23 1349 -8T1214 38T1097 119T984 239Q965 191
926 145T835 61T719 0T589 -23Q493 -23 400 -3T233 65T115 190T70 383Q70 454 93 510T155 608T247 679T359 726T480 753T602 761Q676 761 749 751T893 717Q882 783 858 842T794 946T696 1017T558 1043Q505 1043 457 1027T369 982T298 913T249 823L102 878Q135 957
193 1014T323 1109T476 1165T639 1183Q772 1183 883 1139T1076 1013Q1158 1094 1269 1138T1514 1183Q1578 1183 1645 1174T1775 1146T1894 1095T1991 1019T2057 913T2082 776Z" />
<glyph unicode="&#xe7;" glyph-name="ccedilla" horiz-adv-x="1268" d="M877 -237Q877 -290 859 -329T810 -394T735 -434T643 -447Q603 -447 568 -432T507 -390T466 -329T451 -253H564Q565 -282 589 -296T639 -311Q680 -311 698 -295T717 -237Q717 -215 702 -203T664
-185T619 -178T580 -176L615 -19Q497 -7 398 41T228 169T116 352T76 580Q76 713 121 824T248 1015T441 1139T686 1183Q770 1183 850 1165T998 1108T1121 1010T1209 869L1063 811Q1028 921 946 980T749 1039Q687 1039 639 1020T554 966T492 887T450 791T427 686T420
580Q420 525 426 469T446 362T485 266T545 188T632 136T749 117Q802 117 850 133T938 178T1009 247T1058 336L1205 282Q1174 208 1124 153T1011 61T875 3T726 -22L708 -92Q739 -92 769 -101T824 -129T862 -175T877 -237Z" />
<glyph unicode="&#xe8;" glyph-name="egrave" horiz-adv-x="1322" d="M419 548Q481 534 543 526T668 518Q734 518 790 530T888 572T954 651T978 773Q978 832 962 881T915 965T837 1019T730 1039Q673 1039 628 1018T548 962T489 879T448 781T425 678T418 580Q418
572 418 564T419 548ZM1252 776Q1252 705 1229 650T1167 552T1075 481T964 434T843 407T721 399Q646 399 573 409T429 443Q440 377 464 318T528 214T626 143T765 117Q818 117 866 133T954 178T1024 247T1074 336L1220 282Q1187 203 1130 146T1000 51T846 -5T684
-23Q552 -23 440 21T247 146T120 337T74 580Q74 712 120 823T247 1014T440 1138T684 1183Q748 1183 815 1174T945 1146T1064 1095T1161 1019T1227 913T1252 776ZM804 1283H604L288 1637H605L804 1283Z" />
<glyph unicode="&#xe9;" glyph-name="eacute" horiz-adv-x="1322" d="M419 548Q481 534 543 526T668 518Q734 518 790 530T888 572T954 651T978 773Q978 832 962 881T915 965T837 1019T730 1039Q673 1039 628 1018T548 962T489 879T448 781T425 678T418 580Q418
572 418 564T419 548ZM1252 776Q1252 705 1229 650T1167 552T1075 481T964 434T843 407T721 399Q646 399 573 409T429 443Q440 377 464 318T528 214T626 143T765 117Q818 117 866 133T954 178T1024 247T1074 336L1220 282Q1187 203 1130 146T1000 51T846 -5T684
-23Q552 -23 440 21T247 146T120 337T74 580Q74 712 120 823T247 1014T440 1138T684 1183Q748 1183 815 1174T945 1146T1064 1095T1161 1019T1227 913T1252 776ZM1116 1637L799 1283H600L798 1637H1116Z" />
<glyph unicode="&#xea;" glyph-name="ecircumflex" horiz-adv-x="1322" d="M419 548Q481 534 543 526T668 518Q734 518 790 530T888 572T954 651T978 773Q978 832 962 881T915 965T837 1019T730 1039Q673 1039 628 1018T548 962T489 879T448 781T425 678T418 580Q418
572 418 564T419 548ZM1252 776Q1252 705 1229 650T1167 552T1075 481T964 434T843 407T721 399Q646 399 573 409T429 443Q440 377 464 318T528 214T626 143T765 117Q818 117 866 133T954 178T1024 247T1074 336L1220 282Q1187 203 1130 146T1000 51T846 -5T684
-23Q552 -23 440 21T247 146T120 337T74 580Q74 712 120 823T247 1014T440 1138T684 1183Q748 1183 815 1174T945 1146T1064 1095T1161 1019T1227 913T1252 776ZM986 1286H736L671 1424L605 1286H459L652 1641H787L986 1286Z" />
<glyph unicode="&#xeb;" glyph-name="edieresis" horiz-adv-x="1322" d="M419 548Q481 534 543 526T668 518Q734 518 790 530T888 572T954 651T978 773Q978 832 962 881T915 965T837 1019T730 1039Q673 1039 628 1018T548 962T489 879T448 781T425 678T418 580Q418
572 418 564T419 548ZM1252 776Q1252 705 1229 650T1167 552T1075 481T964 434T843 407T721 399Q646 399 573 409T429 443Q440 377 464 318T528 214T626 143T765 117Q818 117 866 133T954 178T1024 247T1074 336L1220 282Q1187 203 1130 146T1000 51T846 -5T684
-23Q552 -23 440 21T247 146T120 337T74 580Q74 712 120 823T247 1014T440 1138T684 1183Q748 1183 815 1174T945 1146T1064 1095T1161 1019T1227 913T1252 776ZM1040 1408Q1040 1378 1029 1351T997 1304T950 1273T892 1261Q862 1261 835 1272T788 1304T757 1351T745
1408Q745 1438 756 1465T788 1512T835 1543T892 1555Q923 1555 950 1544T997 1512T1028 1465T1040 1408ZM663 1408Q663 1378 652 1351T620 1304T573 1273T515 1261Q485 1261 458 1272T411 1304T380 1351T368 1408Q368 1438 379 1465T411 1512T458 1543T515 1555Q546
1555 573 1544T620 1512T651 1465T663 1408Z" />
<glyph unicode="&#xec;" glyph-name="igrave" horiz-adv-x="623" d="M481 0H142V1154H481V0ZM419 1255H219L-97 1609H220L419 1255Z" />
<glyph unicode="&#xed;" glyph-name="iacute" horiz-adv-x="622" d="M481 0H142V1154H481V0ZM723 1610L406 1256H207L405 1610H723Z" />
<glyph unicode="&#xee;" glyph-name="icircumflex" horiz-adv-x="623" d="M481 0H142V1154H481V0ZM575 1258H325L260 1396L194 1258H48L241 1613H376L575 1258Z" />
<glyph unicode="&#xef;" glyph-name="idieresis" horiz-adv-x="622" d="M481 0H142V1154H481V0ZM648 1403Q648 1373 637 1346T605 1299T558 1268T500 1256Q470 1256 443 1267T396 1299T365 1346T353 1403Q353 1433 364 1460T396 1507T443 1538T500 1550Q531 1550
558 1539T605 1507T636 1460T648 1403ZM271 1403Q271 1373 260 1346T228 1299T181 1268T123 1256Q93 1256 66 1267T19 1299T-12 1346T-24 1403Q-24 1433 -13 1460T19 1507T66 1538T123 1550Q154 1550 181 1539T228 1507T259 1460T271 1403Z" />
<glyph unicode="&#xf0;" glyph-name="eth" horiz-adv-x="1466" d="M1017 580Q1017 628 1012 681T993 786T958 885T902 968T823 1025T716 1047Q658 1047 613 1025T535 967T479 882T442 783T422 679T416 580Q416 534 422 482T442 377T478 278T534 194T613 135T716
113Q776 113 822 134T901 192T957 275T992 374T1011 479T1017 580ZM1315 1498L1146 1445Q1206 1334 1247 1219T1314 994T1350 782T1361 595Q1361 451 1308 337T1166 142T960 20T716 -23Q630 -23 549 -3T397 54T265 144T163 265T96 411T72 580Q72 669 96 748T162
895T265 1015T396 1106T549 1163T716 1183Q794 1183 870 1156T1008 1070Q998 1140 978 1220T932 1378L679 1298V1482L869 1542Q856 1571 844 1597T818 1645L950 1725Q977 1694 1002 1663T1051 1599L1315 1682V1498Z" />
<glyph unicode="&#xf1;" glyph-name="ntilde" horiz-adv-x="1404" d="M1322 662Q1322 545 1294 418T1214 169T1092 -60T936 -246L809 -177Q836 -127 860 -65T903 66T938 210T964 356T980 497T986 625Q986 664 983 708T971 797T945 883T903 955T839 1005T750 1024Q700
1024 661 1002T592 943T541 859T506 763T486 665T480 579V0H141V1155H271L426 886Q454 953 496 1008T591 1102T708 1162T848 1183Q968 1183 1057 1144T1205 1036T1293 871T1322 662ZM1121 1591Q1117 1541 1102 1486T1059 1385T987 1308T885 1277Q826 1277 779 1292T693
1325T623 1359T563 1374Q545 1374 533 1365T513 1341T502 1309T498 1277H343Q345 1329 360 1384T404 1486T477 1561T582 1591Q636 1591 683 1576T770 1544T841 1511T896 1496Q913 1496 925 1505T945 1529T957 1560T961 1591H1121Z" />
<glyph unicode="&#xf2;" glyph-name="ograve" horiz-adv-x="1433" d="M1361 580Q1361 490 1337 411T1271 265T1168 145T1037 54T884 -3T716 -23Q630 -23 549 -3T397 54T265 144T163 265T96 411T72 580Q72 669 96 748T162 895T265 1015T396 1106T549 1163T716 1183Q802
1183 883 1163T1036 1106T1168 1016T1270 895T1337 749T1361 580ZM1017 580Q1017 628 1012 681T993 786T958 885T902 968T823 1025T716 1047Q658 1047 613 1025T535 967T479 882T442 783T422 679T416 580Q416 534 422 482T442 377T478 278T534 194T613 135T716
113Q776 113 822 134T901 192T957 275T992 374T1011 479T1017 580ZM832 1274H632L316 1628H633L832 1274Z" />
<glyph unicode="&#xf3;" glyph-name="oacute" horiz-adv-x="1433" d="M1361 580Q1361 490 1337 411T1271 265T1168 145T1037 54T884 -3T716 -23Q630 -23 549 -3T397 54T265 144T163 265T96 411T72 580Q72 669 96 748T162 895T265 1015T396 1106T549 1163T716 1183Q802
1183 883 1163T1036 1106T1168 1016T1270 895T1337 749T1361 580ZM1017 580Q1017 628 1012 681T993 786T958 885T902 968T823 1025T716 1047Q658 1047 613 1025T535 967T479 882T442 783T422 679T416 580Q416 534 422 482T442 377T478 278T534 194T613 135T716
113Q776 113 822 134T901 192T957 275T992 374T1011 479T1017 580ZM1150 1627L833 1273H634L832 1627H1150Z" />
<glyph unicode="&#xf4;" glyph-name="ocircumflex" horiz-adv-x="1433" d="M1361 580Q1361 490 1337 411T1271 265T1168 145T1037 54T884 -3T716 -23Q630 -23 549 -3T397 54T265 144T163 265T96 411T72 580Q72 669 96 748T162 895T265 1015T396 1106T549 1163T716
1183Q802 1183 883 1163T1036 1106T1168 1016T1270 895T1337 749T1361 580ZM1017 580Q1017 628 1012 681T993 786T958 885T902 968T823 1025T716 1047Q658 1047 613 1025T535 967T479 882T442 783T422 679T416 580Q416 534 422 482T442 377T478 278T534 194T613
135T716 113Q776 113 822 134T901 192T957 275T992 374T1011 479T1017 580ZM980 1277H730L665 1415L599 1277H453L646 1632H781L980 1277Z" />
<glyph unicode="&#xf5;" glyph-name="otilde" horiz-adv-x="1433" d="M1361 580Q1361 490 1337 411T1271 265T1168 145T1037 54T884 -3T716 -23Q630 -23 549 -3T397 54T265 144T163 265T96 411T72 580Q72 669 96 748T162 895T265 1015T396 1106T549 1163T716 1183Q802
1183 883 1163T1036 1106T1168 1016T1270 895T1337 749T1361 580ZM1017 580Q1017 628 1012 681T993 786T958 885T902 968T823 1025T716 1047Q658 1047 613 1025T535 967T479 882T442 783T422 679T416 580Q416 534 422 482T442 377T478 278T534 194T613 135T716
113Q776 113 822 134T901 192T957 275T992 374T1011 479T1017 580ZM1106 1583Q1102 1533 1087 1478T1044 1377T972 1300T870 1269Q811 1269 764 1284T678 1317T608 1351T548 1366Q530 1366 518 1357T498 1333T487 1301T483 1269H328Q330 1321 345 1376T389 1478T462
1553T567 1583Q621 1583 668 1568T755 1536T826 1503T881 1488Q898 1488 910 1497T930 1521T942 1552T946 1583H1106Z" />
<glyph unicode="&#xf6;" glyph-name="odieresis" horiz-adv-x="1433" d="M1361 580Q1361 490 1337 411T1271 265T1168 145T1037 54T884 -3T716 -23Q630 -23 549 -3T397 54T265 144T163 265T96 411T72 580Q72 669 96 748T162 895T265 1015T396 1106T549 1163T716
1183Q802 1183 883 1163T1036 1106T1168 1016T1270 895T1337 749T1361 580ZM1017 580Q1017 628 1012 681T993 786T958 885T902 968T823 1025T716 1047Q658 1047 613 1025T535 967T479 882T442 783T422 679T416 580Q416 534 422 482T442 377T478 278T534 194T613
135T716 113Q776 113 822 134T901 192T957 275T992 374T1011 479T1017 580ZM1053 1404Q1053 1374 1042 1347T1010 1300T963 1269T905 1257Q875 1257 848 1268T801 1300T770 1347T758 1404Q758 1434 769 1461T801 1508T848 1539T905 1551Q936 1551 963 1540T1010
1508T1041 1461T1053 1404ZM676 1404Q676 1374 665 1347T633 1300T586 1269T528 1257Q498 1257 471 1268T424 1300T393 1347T381 1404Q381 1434 392 1461T424 1508T471 1539T528 1551Q559 1551 586 1540T633 1508T664 1461T676 1404Z" />
<glyph unicode="&#xf7;" glyph-name="divide" horiz-adv-x="1017" d="M926 629H91V813H926V629ZM654 410Q654 380 643 353T612 307T566 276T509 264Q479 264 452 275T406 306T375 353T363 410Q363 440 374 466T405 512T452 543T509 555Q539 555 565 544T611 513T642
467T654 410ZM654 1040Q654 1010 643 983T612 937T566 906T509 894Q479 894 452 905T406 936T375 983T363 1040Q363 1070 374 1096T405 1142T452 1173T509 1185Q539 1185 565 1174T611 1143T642 1097T654 1040Z" />
<glyph unicode="&#xf8;" glyph-name="oslash" horiz-adv-x="1433" d="M438 393L915 953Q881 996 832 1021T716 1047Q658 1047 613 1025T535 967T479 882T442 783T422 679T416 580Q416 537 421 489T438 393ZM997 770L520 211Q555 166 603 140T716 113Q776 113 822
134T901 192T957 275T992 374T1011 479T1017 580Q1017 625 1013 673T997 770ZM1329 1160L1189 995Q1269 917 1315 812T1361 580Q1361 490 1337 411T1271 265T1168 145T1037 54T884 -3T716 -23Q628 -23 545 -3T389 57L341 0H103L243 165Q164 243 118 348T72 580Q72
669 96 748T162 895T265 1015T396 1106T549 1163T716 1183Q805 1183 887 1162T1043 1103L1091 1160H1329Z" />
<glyph unicode="&#xf9;" glyph-name="ugrave" horiz-adv-x="1404" d="M82 494Q82 573 95 658T134 828T196 996T277 1155H524Q499 1080 480 999T447 836T426 676T418 531Q418 492 421 448T434 359T459 273T502 201T565 151T654 132Q704 132 743 154T813 213T864
297T898 393T918 490T925 576V1155H1263V0H1133L978 269Q949 202 908 148T813 54T696 -6T556 -27Q436 -27 347 12T199 120T111 284T82 494ZM820 1255H620L304 1609H621L820 1255Z" />
<glyph unicode="&#xfa;" glyph-name="uacute" horiz-adv-x="1404" d="M82 494Q82 573 95 658T134 828T196 996T277 1155H524Q499 1080 480 999T447 836T426 676T418 531Q418 492 421 448T434 359T459 273T502 201T565 151T654 132Q704 132 743 154T813 213T864
297T898 393T918 490T925 576V1155H1263V0H1133L978 269Q949 202 908 148T813 54T696 -6T556 -27Q436 -27 347 12T199 120T111 284T82 494ZM1139 1609L822 1255H623L821 1609H1139Z" />
<glyph unicode="&#xfb;" glyph-name="ucircumflex" horiz-adv-x="1404" d="M82 494Q82 573 95 658T134 828T196 996T277 1155H524Q499 1080 480 999T447 836T426 676T418 531Q418 492 421 448T434 359T459 273T502 201T565 151T654 132Q704 132 743 154T813 213T864
297T898 393T918 490T925 576V1155H1263V0H1133L978 269Q949 202 908 148T813 54T696 -6T556 -27Q436 -27 347 12T199 120T111 284T82 494ZM1000 1257H750L685 1395L619 1257H473L666 1612H801L1000 1257Z" />
<glyph unicode="&#xfc;" glyph-name="udieresis" horiz-adv-x="1404" d="M82 494Q82 573 95 658T134 828T196 996T277 1155H524Q499 1080 480 999T447 836T426 676T418 531Q418 492 421 448T434 359T459 273T502 201T565 151T654 132Q704 132 743 154T813 213T864
297T898 393T918 490T925 576V1155H1263V0H1133L978 269Q949 202 908 148T813 54T696 -6T556 -27Q436 -27 347 12T199 120T111 284T82 494ZM1073 1403Q1073 1373 1062 1346T1030 1299T983 1268T925 1256Q895 1256 868 1267T821 1299T790 1346T778 1403Q778 1433
789 1460T821 1507T868 1538T925 1550Q956 1550 983 1539T1030 1507T1061 1460T1073 1403ZM696 1403Q696 1373 685 1346T653 1299T606 1268T548 1256Q518 1256 491 1267T444 1299T413 1346T401 1403Q401 1433 412 1460T444 1507T491 1538T548 1550Q579 1550 606
1539T653 1507T684 1460T696 1403Z" />
<glyph unicode="&#xfd;" glyph-name="yacute" horiz-adv-x="1175" d="M1175 1155L755 139Q683 -35 595 -205T403 -533L271 -453Q296 -408 330 -349T397 -227T458 -103T501 10L-4 1155H334L677 374L941 1155H1175ZM1057 1459L740 1105H541L739 1459H1057Z" />
<glyph unicode="&#xfe;" glyph-name="thorn" horiz-adv-x="1445" d="M1026 580Q1026 624 1022 673T1006 772T976 866T926 945T854 1000T755 1021Q697 1021 655 1001T582 947T532 868T501 774T486 675T481 580Q481 540 487 492T506 394T540 299T591 217T662 160T755
138Q812 138 854 158T926 213T975 293T1006 387T1021 486T1026 580ZM141 1640H479V1015Q536 1093 621 1138T809 1183Q941 1183 1045 1136T1221 1008T1331 816T1369 580Q1369 454 1331 344T1221 153T1045 24T809 -23Q708 -23 624 16T479 138V-533H141V1640Z" />
<glyph unicode="&#xff;" glyph-name="ydieresis" horiz-adv-x="1175" d="M1175 1155L755 139Q683 -35 595 -205T403 -533L271 -453Q296 -408 330 -349T397 -227T458 -103T501 10L-4 1155H334L677 374L941 1155H1175ZM973 1351Q973 1321 962 1294T930 1247T883
1216T825 1204Q795 1204 768 1215T721 1247T690 1294T678 1351Q678 1381 689 1408T721 1455T768 1486T825 1498Q856 1498 883 1487T930 1455T961 1408T973 1351ZM596 1351Q596 1321 585 1294T553 1247T506 1216T448 1204Q418 1204 391 1215T344 1247T313 1294T301
1351Q301 1381 312 1408T344 1455T391 1486T448 1498Q479 1498 506 1487T553 1455T584 1408T596 1351Z" />
<glyph unicode="&#x2013;" glyph-name="endash" horiz-adv-x="782" d="M641 629H141V813H641V629Z" />
<glyph unicode="&#x2014;" glyph-name="emdash" horiz-adv-x="1282" d="M1141 629H141V813H1141V629Z" />
<glyph unicode="&#x2018;" glyph-name="quoteleft" horiz-adv-x="560" d="M465 1122Q465 1084 451 1051T412 994T354 955T283 940Q245 940 212 954T154 993T115 1051T101 1122Q101 1168 113 1216T146 1309T197 1395T260 1466L404 1391Q383 1374 362 1349T336 1296Q364
1287 388 1270T429 1230T455 1180T465 1122Z" />
<glyph unicode="&#x2019;" glyph-name="quoteright" horiz-adv-x="548" d="M455 1284Q455 1238 443 1190T410 1097T359 1012T296 940L152 1016Q173 1032 194 1058T220 1110Q191 1119 168 1136T127 1176T101 1226T91 1284Q91 1321 105 1354T144 1412T202 1451T273
1466Q311 1466 344 1452T402 1413T441 1355T455 1284Z" />
<glyph unicode="&#x201a;" glyph-name="quotesinglbase" horiz-adv-x="578" d="M469 150Q469 104 457 56T424 -37T373 -123T310 -195L166 -119Q187 -103 208 -77T234 -25Q205 -16 182 1T141 41T115 92T105 150Q105 187 119 220T158 278T216 317T287 332Q325 332
358 318T416 279T455 221T469 150Z" />
<glyph unicode="&#x201c;" glyph-name="quotedblleft" horiz-adv-x="1023" d="M928 1122Q928 1084 914 1051T875 994T817 955T746 940Q708 940 675 954T617 993T578 1051T564 1122Q564 1168 576 1216T609 1309T660 1395T723 1466L867 1391Q846 1374 825 1349T799
1296Q827 1287 851 1270T892 1230T918 1180T928 1122ZM465 1122Q465 1084 451 1051T412 994T354 955T283 940Q245 940 212 954T154 993T115 1051T101 1122Q101 1168 113 1216T146 1309T197 1395T260 1466L404 1391Q383 1374 362 1349T336 1296Q364 1287 388 1270T429
1230T455 1180T465 1122Z" />
<glyph unicode="&#x201d;" glyph-name="quotedblright" horiz-adv-x="1011" d="M918 1284Q918 1238 906 1190T873 1097T822 1012T758 940L615 1016Q625 1024 636 1034T657 1057T674 1083T683 1110Q654 1119 631 1136T590 1176T564 1226T554 1284Q554 1321 568
1354T607 1412T665 1451T736 1466Q774 1466 807 1452T865 1413T904 1355T918 1284ZM455 1284Q455 1238 443 1190T410 1097T359 1012T296 940L152 1016Q173 1032 194 1058T220 1110Q191 1119 168 1136T127 1176T101 1226T91 1284Q91 1321 105 1354T144 1412T202
1451T273 1466Q311 1466 344 1452T402 1413T441 1355T455 1284Z" />
<glyph unicode="&#x201e;" glyph-name="quotedblbase" horiz-adv-x="1041" d="M932 150Q932 104 920 56T887 -37T836 -123T772 -195L629 -119Q639 -111 650 -101T671 -78T688 -52T697 -25Q668 -16 645 1T604 41T578 92T568 150Q568 187 582 220T621 278T679 317T750
332Q788 332 821 318T879 279T918 221T932 150ZM469 150Q469 104 457 56T424 -37T373 -123T310 -195L166 -119Q187 -103 208 -77T234 -25Q205 -16 182 1T141 41T115 92T105 150Q105 187 119 220T158 278T216 317T287 332Q325 332 358 318T416 279T455 221T469 150Z"
/>
<glyph unicode="&#x2022;" glyph-name="bullet" horiz-adv-x="726" d="M618 686Q618 633 598 587T544 506T463 451T363 431Q310 431 264 451T183 505T128 586T108 686Q108 739 128 785T182 866T263 921T363 941Q416 941 462 921T543 867T598 786T618 686Z" />
<glyph unicode="&#x2039;" glyph-name="guilsinglleft" horiz-adv-x="832" d="M688 952V743L310 583V570L688 396V200L74 507V647L688 952Z" />
<glyph unicode="&#x203a;" glyph-name="guilsinglright" horiz-adv-x="832" d="M758 507L144 200V396L522 570V583L144 743V952L758 647V507Z" />
</font>
</defs>
</svg>
